<svg width="135" height="163" xmlns="http://www.w3.org/2000/svg" xmlns:xlink="http://www.w3.org/1999/xlink">
  <defs>
    <path d="M65.6 31.2h-1.1v-11h14v10.6c-4.2.3-8.5.4-12.9.4m-2.1 0c-4.8 0-9.5-.2-14-.6V20.1h14v11m16-.3V20H92v9.6c-4 .5-8.2.8-12.5 1m-31-.1c-5-.4-9.6-.9-14-1.5v-9h14v10.5M96 29.2v-9h14v6.3c-4.2 1-9 2-14 2.7m-62.5-.3a131 131 0 0 1-14-2.8v-6h14V29m77.5-2.6V20h14v1a61 61 0 0 1-14 5.2m-95.5-1.4A40 40 0 0 1 4.8 20h10.7v5M126 20.4v-.3h.4l-.4.3m1.8-1.3H126V7c3.2 2.1 5 4.4 5 6.8 0 1.9-1.1 3.7-3.2 5.4m-2.8 0h-14v-14h11.6l2.4 1.2v12.8m-15 0H96v-7.6c8.3-1.5 13.4-3.7 13.4-6V5h.6v14m-18 0H79.5v-5.7c4.5-.2 8.7-.7 12.5-1.2v7m-13.5 0h-14v-5.4a245.9 245.9 0 0 0 14-.3V19m-15 0h-14v-5.9c4.3.4 9 .6 14 .6V19m-15 0h-14v-8c4 .9 8.7 1.5 14 2v6m-15 0h-14V5H23v.3c0 2.1 4 4 10.5 5.5V19m-18 0h-12l-.5-.4v-10C4.4 7.3 6.3 6.1 8.6 5h6.9v14M2 17.7a6.1 6.1 0 0 1-1.8-4c0-1.4.6-2.8 1.8-4v8M111 1.1h-.1.1m-1.1 0h-.6V.7l.6.1v.3m-87 0h-3l3-.7v.7" id="a"/>
    <path d="M63.5 31.2h-1v-11h-14v10.4h-1V20h-14v9l-1-.2V20h-14v6l-4-1.2V20H3.8l-1.3-1h12V5h-7c3.2-1.5 7-2.8 11.6-4H22v4h-3.5v14h14v-8l1 .3v8h14v-6h1v6h14v-5.4h1v5.3h14v-5.6h1V19H91v-7c1.4-.1 2.7-.3 4-.6V19h14V5h-.6V1h.6V.8l1 .3h.1c4.6 1.2 8.4 2.5 11.5 4H110v14h14V6.3l1 .6v12.2h1.8l-1.4 1h-.4v.3l-1 .6v-.9h-14v6.2l-1 .2v-6.4H95v9c-1.3.3-2.7.4-4 .6v-9.6H78.5v10.7h-1V20.1h-14v11M2 18.8l-1-1v-8l1-1v10" id="c"/>
  </defs>
  <g fill="none" fill-rule="evenodd">
    <g transform="translate(0 131)">
      <mask id="b" fill="#fff">
        <use xlink:href="#a"/>
      </mask>
      <path d="M65.6 31.2h-1.1v-11h14v10.6c-4.2.3-8.5.4-12.9.4m-2.1 0c-4.8 0-9.5-.2-14-.6V20.1h14v11m16-.3V20H92v9.6c-4 .5-8.2.8-12.5 1m-31-.1c-5-.4-9.6-.9-14-1.5v-9h14v10.5M96 29.2v-9h14v6.3c-4.2 1-9 2-14 2.7m-62.5-.3a131 131 0 0 1-14-2.8v-6h14V29m77.5-2.6V20h14v1a61 61 0 0 1-14 5.2m-95.5-1.4A40 40 0 0 1 4.8 20h10.7v5M126 20.4v-.3h.4l-.4.3m1.8-1.3H126V7c3.2 2.1 5 4.4 5 6.8 0 1.9-1.1 3.7-3.2 5.4m-2.8 0h-14v-14h11.6l2.4 1.2v12.8m-15 0H96v-7.6c8.3-1.5 13.4-3.7 13.4-6V5h.6v14m-18 0H79.5v-5.7c4.5-.2 8.7-.7 12.5-1.2v7m-13.5 0h-14v-5.4a245.9 245.9 0 0 0 14-.3V19m-15 0h-14v-5.9c4.3.4 9 .6 14 .6V19m-15 0h-14v-8c4 .9 8.7 1.5 14 2v6m-15 0h-14V5H23v.3c0 2.1 4 4 10.5 5.5V19m-18 0h-12l-.5-.4v-10C4.4 7.3 6.3 6.1 8.6 5h6.9v14M2 17.7a6.1 6.1 0 0 1-1.8-4c0-1.4.6-2.8 1.8-4v8M111 1.1h-.1.1m-1.1 0h-.6V.7l.6.1v.3m-87 0h-3l3-.7v.7" mask="url(#b)"/>
    </g>
    <g transform="translate(1 131)">
      <mask id="d" fill="#fff">
        <use xlink:href="#c"/>
      </mask>
      <path d="M63.5 31.2h-1v-11h-14v10.4h-1V20h-14v9l-1-.2V20h-14v6l-4-1.2V20H3.8l-1.3-1h12V5h-7c3.2-1.5 7-2.8 11.6-4H22v4h-3.5v14h14v-8l1 .3v8h14v-6h1v6h14v-5.4h1v5.3h14v-5.6h1V19H91v-7c1.4-.1 2.7-.3 4-.6V19h14V5h-.6V1h.6V.8l1 .3h.1c4.6 1.2 8.4 2.5 11.5 4H110v14h14V6.3l1 .6v12.2h1.8l-1.4 1h-.4v.3l-1 .6v-.9h-14v6.2l-1 .2v-6.4H95v9c-1.3.3-2.7.4-4 .6v-9.6H78.5v10.7h-1V20.1h-14v11M2 18.8l-1-1v-8l1-1v10" mask="url(#d)"/>
    </g>
    <path d="M107.7 66.7v41.8c4.4-1.6 9-5 12.8-9.6 4.7-5.9 7-12.5 6.2-18.3-1.1-8.1-6.9-12.4-19-13.9m-7.6 50.6V58.5l4 .3c11.9.8 27.8 3.8 30.1 20.8a32.4 32.4 0 0 1-7.8 24.1 34 34 0 0 1-22.2 13.3l-4 .3" fill="#D4CFC1"/>
    <path d="M101.7 50.4a20.7 20.7 0 0 1-25.9-1 24.4 24.4 0 0 1-29 1.2A21.2 21.2 0 0 1 23 58.9v77.5c0 4.7 19.3 8.4 43.2 8.4 23.9 0 43.2-3.7 43.2-8.4v-81c-3-.8-5.7-2.6-7.7-5" fill="#D4CFC1"/>
    <path d="M66.2 79.3c-20.6 0-37.4-3-37.4-6.6v57.9c0 3.7 16.8 6.6 37.4 6.6 20.6 0 37.4-3 37.4-6.6V72.7c0 3.7-16.8 6.6-37.4 6.6" fill="#EDBF49"/>
    <path d="M23 115.7V60a21.2 21.2 0 0 0 22.4-7.3c2.8 1.2 6.5 2 8.5 2.7l1.4 1.6h.2c7 0 5.6 10 10 13.5 1.5 1.1 3.7 2.4 5.7 2.4.8 0 1.5-.1 2.2-.6 3-1.8 1.6-6.5 2-9.2.5-2.8 2.3-6.3 5.6-7h.7c3.5 0 3.8 3.4 5.8 5.6 1.3 1.5 2.3 2.1 3.3 2.1 2.8 0 4.5-5.4 7.2-8.2v3.7l-26.6 20-5.2.1c-15 0-27.8-1.5-33.8-3.8v-12c-1.9 0-3.7-.3-5.4-.9v50l-4 3.1m80.9-61v-.4l.4.1-.4.4" fill="#DBD6C9"/>
    <path d="M32.4 108.6v-33a116.3 116.3 0 0 0 39 3.6l-39 29.4m17.8-17.3a1.7 1.7 0 1 0 0 3.4 1.7 1.7 0 0 0 0-3.4M36 92a1.3 1.3 0 1 0 0 2.5 1.3 1.3 0 0 0 0-2.5m6.2-10.7a2.1 2.1 0 1 0 0 4.3 2.1 2.1 0 0 0 0-4.3" fill="#F1C962"/>
    <path d="M112.7 24.1c-1 0-2.2.2-3.2.4a22 22 0 0 0-20.7-16c-3.3 0-6.4.8-9.1 2.2A25 25 0 0 0 59.9.7c-10 0-18.6 6.2-22.8 15a20.5 20.5 0 0 0-8.3-1.7C16.8 14 7 24.5 7 37.4c0 12.9 9.8 23.3 21.8 23.3 6.7 0 12.6-3.2 16.6-8.2 2.8 1.3 6.5 2 8.5 2.8l1.4 1.6c7.2-.2 5.8 10 10.2 13.5 2 1.6 5.5 3.4 7.9 1.8 3-1.8 1.6-6.5 2-9.2.5-2.8 2.3-6.3 5.6-7 4.2-.5 4.4 3.2 6.5 5.6 6.2 7.6 7.6-7.2 13.4-7.7 1.4-.1 3 .3 4.5.9 2.2 1.3 4.7 2 7.3 2 8.5 0 15.3-7.3 15.3-16.3S121.2 24 112.7 24" fill="#E3E1CD"/>
    <path d="M88.2 47.4a3.8 3.8 0 1 1 0-7.6 3.8 3.8 0 0 1 0 7.6m-17.5 7.3a2 2 0 1 1 0-3.8 2 2 0 0 1 0 3.8m35-16.4a3.8 3.8 0 1 1 0-7.6 3.8 3.8 0 0 1 0 7.6m9 12a3 3 0 1 1 0-5.9 3 3 0 0 1 0 5.9M74.5 30.4c-1 0-2-.4-2.7-1l6-4.6c.3.6.4 1.2.4 1.8 0 2.1-1.7 3.8-3.7 3.8" fill="#E9E8D6"/>
    <path d="M122 42.4c-1.1-7-6.8-12.3-13.7-12.3-1 0-2 0-3 .3a20.3 20.3 0 0 0-16-14.3l4.9-3.6c5.2 2.3 9.3 7 11.1 12.9 1-.3 2-.4 3-.4 7.7 0 14 6.7 14 14.9 0 .9-.2 1.7-.3 2.5" fill="#EDEADB"/>
    <path d="M28.8 60.7C16.8 60.7 7 50.3 7 37.4 7 24.4 16.8 14 28.8 14c3 0 5.7.6 8.3 1.7C41.3 7 50 .7 59.9.7c8 0 15 4 19.8 10 2.7-1.4 5.8-2.1 9.1-2.1h.2c2.9 0 5.6.6 8 1.7l-2.8 2.2a18.6 18.6 0 0 0-16 .3c-4.3-5.5-10.8-9-18-9-9 0-17 5.5-20.8 13.6-2.3-1-4.8-1.6-7.5-1.6C21 15.8 12 25.3 12 37l.2 2.5a20.4 20.4 0 0 1 19.7-18.8c2.7 0 5.2.6 7.5 1.6a24 24 0 0 1 12.6-12 3.8 3.8 0 1 0 7-1.6 22.4 22.4 0 0 1 19.2 9A18.6 18.6 0 0 1 89.4 16l-11.6 8.7a3.8 3.8 0 1 0-6 4.5L30.2 60.7h-1.4m10-17.1a3.8 3.8 0 1 0 0 7.6 3.8 3.8 0 0 0 0-7.6M16.3 40a3.8 3.8 0 1 0 0 7.6 3.8 3.8 0 0 0 0-7.6m38-9a3.8 3.8 0 1 0 0 7.5 3.8 3.8 0 0 0 0-7.6m-25.4-7a2.6 2.6 0 1 0 0 5.3 2.6 2.6 0 0 0 0-5.3" fill="#E8E5D3"/>
    <path d="M28.9 29.3a2.6 2.6 0 1 1 0-5.3 2.6 2.6 0 0 1 0 5.3m26.9-14.6a3.8 3.8 0 0 1-3.8-4.3c2.2-1 4.5-1.5 7-1.6.3.6.6 1.3.6 2 0 2.2-1.7 3.9-3.8 3.9M16.3 47.6a3.8 3.8 0 1 1 0-7.5 3.8 3.8 0 0 1 0 7.5m22.5 3.6a3.8 3.8 0 1 1 0-7.6 3.8 3.8 0 0 1 0 7.6m15.5-12.6a3.8 3.8 0 1 1 0-7.6 3.8 3.8 0 0 1 0 7.6m17.5-9.3a3.8 3.8 0 0 1 2.7-6.5c1.4 0 2.6.8 3.3 2l-6 4.5" fill="#EDEBDC"/>
    <path d="M12.2 39.6L12 37c0-11.8 9-21.3 20-21.3 2.6 0 5.1.6 7.4 1.6A23.2 23.2 0 0 1 60.2 3.7a23 23 0 0 1 18 9.1 18.7 18.7 0 0 1 16-.3L89.4 16a18.6 18.6 0 0 0-11.2 1.8 22.7 22.7 0 0 0-19.2-9 3.8 3.8 0 0 0-7 1.5 24 24 0 0 0-12.6 12c-2.3-1-4.8-1.6-7.5-1.6a20.4 20.4 0 0 0-19.7 18.8" fill="#F1EEE1"/>
    <path d="M52 10.4a3.8 3.8 0 0 1 7-1.6c-2.5.1-4.8.7-7 1.6" fill="#F5F4E9"/>
    <path d="M90 94a2.1 2.1 0 1 1 0-4.3 2.1 2.1 0 0 1 0 4.3m-32 15.7a2.1 2.1 0 1 1 0-4.3 2.1 2.1 0 0 1 0 4.3m8.6-18a2.1 2.1 0 1 1 0-4.3 2.1 2.1 0 0 1 0 4.3" fill="#F1CC69"/>
    <path d="M50.2 94.7a1.7 1.7 0 1 1 0-3.4 1.7 1.7 0 0 1 0 3.4M36 94.5a1.3 1.3 0 1 1 0-2.5 1.3 1.3 0 0 1 0 2.5" fill="#F4D37D"/>
    <path d="M76.4 98.2a1.3 1.3 0 1 1 0-2.5 1.3 1.3 0 0 1 0 2.5m9.6 12.5a1.3 1.3 0 1 1 0-2.5 1.3 1.3 0 0 1 0 2.5m-3-24.8a1.7 1.7 0 1 1 0-3.4 1.7 1.7 0 0 1 0 3.4m15-3.5a1.4 1.4 0 0 1 0-2v2" fill="#F1CC69"/>
    <path d="M42.3 85.6a2.1 2.1 0 1 1 0-4.3 2.1 2.1 0 0 1 0 4.3" fill="#F4D37D"/>
    <path d="M89.1 141.2V140c5.6-1.4 8.9-3.2 8.9-5.1v-.8c3.5-1 5.6-2.2 5.6-3.5V72.7c0 1.3-2 2.5-5.6 3.5v-17l5.9-4.4v80.1c0 2.5-5.8 4.8-14.8 6.3" fill="#D8D3C5"/>
    <path d="M98 134V82.5c.3.3.6.5 1 .5a1.5 1.5 0 1 0-1-2.5v-4.2c3.5-1 5.6-2.2 5.6-3.5v57.9c0 1.3-2 2.5-5.6 3.5" fill="#F0C455"/>
    <path d="M98 59.2v-3.7a4.6 4.6 0 0 1 3.4-1.6c.8 0 1.6.2 2.5.4v.5l-6 4.4" fill="#DDDACC"/>
    <path d="M98 55.5V54c-2-.5-4-1.5-5.5-2.9a20 20 0 0 0 3.7-2.2c2 2.5 4.6 4.3 7.7 5.1v.4a9.1 9.1 0 0 0-3-.4c-1.1.1-2 .7-3 1.6" fill="#E5E3D0"/>
    <path d="M99 82.9c-.4 0-.7-.2-1-.5v-2c.3-.3.6-.4 1-.4a1.4 1.4 0 1 1 0 2.9" fill="#F2CF72"/>
    <path d="M40.7 140c-8.4-1.4-13.7-3.5-13.7-5.8v-21.5l1.8-1.4v19.3c0 1 1.3 2 3.6 2.8v.8c0 1.7 3.1 3.4 8.3 4.7v1.1" fill="#DDDACC"/>
    <path d="M32.4 133.4c-2.3-.8-3.6-1.8-3.6-2.8v-19.3l3.6-2.7v24.8" fill="#F1CC69"/>
    <path d="M27 112.7V62.6c1.7.6 3.5.9 5.4 1v12c-2.3-1-3.6-1.9-3.6-2.9v38.6l-1.8 1.4" fill="#E3DED2"/>
    <path d="M28.8 111.3V72.7c0 1 1.3 2 3.6 2.8v33.1l-3.6 2.7" fill="#F4D37D"/>
  </g>
</svg>
