<svg width="132" height="162" version="1" xmlns="http://www.w3.org/2000/svg" xmlns:xlink="http://www.w3.org/1999/xlink"><defs><path d="M66 35H55v-5h14v5h-3zm7 0v-5h12v5H73zm-19 0l-14-1v-4h14v5zm32-1v-4h14v3l-14 1zm-47 0l-14-2v-2h14v4zm62-1v-3h11l-11 3zm-77-2l-5-1h5v1zm100-5h-8V14h13l1 1v6l-6 5zm-23 0h14V14h-14v12zm-15 0h14V14H86v12zm-1 0H73V15l10-1h2v12zm-16 0H55V14a141 141 0 0 0 14 1v11zm-15 0H40V14h14v12zm-29 0h14V14H25v12zm-15 0h14V14H10v12zm-1 0H8c-5-2-7-5-7-8l1-4h7v12zm119-13h-12V7c6 1 10 3 12 6zm-13 0h-14V3l14 3v7zm-15 0H89l5-2-7-2h-1V1l14 2v10zm-58 0h-2v-1l2 1zm-3 0H25V4l14-2v8l-2 1 2 1v1zm-15 0H10V9l14-5v9zM9 13H3l6-4v4zm31-3V2l14-1v3L44 9l-4 1zm45-2c-5-1-9-4-11-8l11 1v7zM55 4V1l3-1-3 4z" id="a"/><path d="M67 35v-5H53v5h-1v-5H38v4h-1v-4H23v2l-1-1v-1h-5L6 26h1V14H0l1-1h6V9h1v4h14V4h1v9h14v-1h1v1h2l6 1h-8v12h14V14h1v12h14V15h4v11h12V14h-2l6-1h11V3h1v10h14V6l1 1v6h12l1 1h-13v12h8l-12 4H99v3h-1v-3H84v4l-1 1v-5H71v5h-4zm32-9h14V14H99v12zm-15 0h14V14H84v12zm-61 0h14V14H23v12zM8 26h14V14H8v12zm120-5v-6l1 3-1 3zM37 10V2h1v8h-1zm47-1l-1-1V1h1v8zM52 4V1h1v3h-1z" id="c"/></defs><g fill="none" fill-rule="evenodd"><g transform="translate(0 126)"><mask id="b" fill="#fff"><use xlink:href="#a"/></mask><path d="M66 35H55v-5h14v5h-3zm7 0v-5h12v5H73zm-19 0l-14-1v-4h14v5zm32-1v-4h14v3l-14 1zm-47 0l-14-2v-2h14v4zm62-1v-3h11l-11 3zm-77-2l-5-1h5v1zm100-5h-8V14h13l1 1v6l-6 5zm-23 0h14V14h-14v12zm-15 0h14V14H86v12zm-1 0H73V15l10-1h2v12zm-16 0H55V14a141 141 0 0 0 14 1v11zm-15 0H40V14h14v12zm-29 0h14V14H25v12zm-15 0h14V14H10v12zm-1 0H8c-5-2-7-5-7-8l1-4h7v12zm119-13h-12V7c6 1 10 3 12 6zm-13 0h-14V3l14 3v7zm-15 0H89l5-2-7-2h-1V1l14 2v10zm-58 0h-2v-1l2 1zm-3 0H25V4l14-2v8l-2 1 2 1v1zm-15 0H10V9l14-5v9zM9 13H3l6-4v4zm31-3V2l14-1v3L44 9l-4 1zm45-2c-5-1-9-4-11-8l11 1v7zM55 4V1l3-1-3 4z" mask="url(#b)"/></g><g transform="translate(2 126)"><mask id="d" fill="#fff"><use xlink:href="#c"/></mask><path d="M67 35v-5H53v5h-1v-5H38v4h-1v-4H23v2l-1-1v-1h-5L6 26h1V14H0l1-1h6V9h1v4h14V4h1v9h14v-1h1v1h2l6 1h-8v12h14V14h1v12h14V15h4v11h12V14h-2l6-1h11V3h1v10h14V6l1 1v6h12l1 1h-13v12h8l-12 4H99v3h-1v-3H84v4l-1 1v-5H71v5h-4zm32-9h14V14H99v12zm-15 0h14V14H84v12zm-61 0h14V14H23v12zM8 26h14V14H8v12zm120-5v-6l1 3-1 3zM37 10V2h1v8h-1zm47-1l-1-1V1h1v8zM52 4V1h1v3h-1z" mask="url(#d)"/></g><path d="M64 147c25 0 45-4 45-7v-2h-7c-10-1-44-4-67-2h-6l-9 2v2c0 3 20 7 44 7" fill="#95968B"/><path d="M109 138c0-3-20-7-44-7-25 0-45 4-45 7s20 7 44 7c25 0 45-4 45-7" fill="#FFFFFF"/><path d="M37 137c2 1 13 4 29 4 15 0 27-3 28-4l-7-2c-14-4-16-13-17-18V74h-9v42c0 5-2 15-17 19l-7 2" fill="#FFFFFF"/><path fill="#D4CFC1" d="M66 78l61-54H6l60 54"/><path fill="#246369" d="M28 37l38 34 38-34H28"/><path d="M104 37c0 3-17 5-38 5s-38-2-38-5c0-2 17-4 38-4s38 2 38 4" fill="#2D848D"/><path d="M67 74l-2-1 4-4 2 2-4 3m-5-5l-10-8 1-1 9 9" fill="#DDDACC"/><path fill="#498185" d="M62 69l-9-9 3-2 9 8-3 3"/><path d="M63 74l-3-3 2-2 3 4-2 1m6-5l29-26-29 26m35-32l-5-2 8-7h8l-11 9" fill="#D7D2C3"/><path d="M69 69l-4-3 28-25 10-2-5 4-29 26" fill="#2D6B71"/><path d="M93 41l6-6 5 2-1 2-10 2" fill="#378A92"/><path fill="#DFDCCE" d="M65 73l-3-4 4 2 3-2-4 4"/><path fill="#51878B" d="M66 71l-4-2 3-3 4 3-3 2"/><path d="M127 24c0 3-27 6-60 6-34 0-61-3-61-6s27-6 61-6c33 0 60 3 60 6" fill="#FFFFFF"/><path d="M75 45l-7 15 8-14-1-1" fill="#362D1F"/><path d="M72 33c-3 5-1 12 3 14 5 2 11 0 14-5 2-5 1-12-4-14-5-3-11 0-13 5" fill="#6E2A20"/><path d="M82 30v-1 1" fill="#54221A"/><path d="M85 31l16-31-18 30 2 1" fill="#1E262B"/><path d="M48 62l-8-7 8 7m-9-8l-7-6 7 6m-8-7l-6-5 6 5m-7-6l-8-8 8 8m-9-9l-5-4 5 4m-6-5l-2-2 2 2" fill="#FFFFFE"/><path d="M49 63l-1-1 1 1m-9-8l-1-1 1 1m-8-7l-1-1 1 1m-7-6l-1-1 1 1m-9-9l-1-1 1 1m-6-5l-1-1 1 1" fill="#F8F7F5"/><path d="M49 63L16 33l-1-1-8-7 8 2 37 34-3 2M32 36l-8-8 8 1h1l30 1h11l-2 3a339 339 0 0 0-40 3" fill="#DBD6C9"/><path d="M56 58L41 44h1a2 2 0 1 0-2-1l-3-3a234 234 0 0 0 34 2l2 3-17 13m-2-9a2 2 0 1 0 0 3 2 2 0 0 0 0-3m13-6a2 2 0 1 0 0 3 2 2 0 0 0 0-3" fill="#3F7A7E"/><path d="M66 42l-29-2-5-4a182 182 0 0 1 40-3c-2 3-2 6-1 9h-5" fill="#49959C"/><path d="M52 61L15 27l9 1 8 8-4 1 1 2 24 21-1 1" fill="#E3E0D2"/><path d="M53 60L29 39l8 1 3 3 1 1 15 14-3 2M28 37" fill="#619395"/><path d="M37 40l-8-1-1-2 4-1 5 4" fill="#6BA9AE"/><path d="M89 33l-2-4h7l-5 4" fill="#DBD6C9"/><path d="M67 30h7-7m20-1h7-7m-54 0h-1 1m-1 0a301 301 0 0 1-25-4c3 2 12 3 25 4" fill="#E8E5D3"/><path d="M73 45l-2-3c-1-3-1-6 1-9l2-3h8c1 2 4 2 5 2l-3-1h1v-1a434 434 0 0 0 2-1l2 4-16 12m10-15h-1 2-1" fill="#854638"/><path d="M87 32c-1 0-4 0-5-2h1l1 1 3 1" fill="#6F3F32"/><path d="M85 31h-1l-1-1h2v1" fill="#3D4448"/><path d="M65 63a3 3 0 1 1 0-6 3 3 0 0 1 0 6" fill="#3A767B"/><path d="M54 52a2 2 0 1 1 0-3 2 2 0 0 1 0 3m-12-8h-1l-1-1a2 2 0 1 1 2 1" fill="#54898C"/><path d="M41 44l-1-1 1 1" fill="#739FA0"/><path d="M67 46a2 2 0 1 1 0-3 2 2 0 0 1 0 3" fill="#54898C"/><path d="M86 45l2-2v1l-2 1" fill="#3A767B"/><path d="M86 45a2 2 0 1 1 2-2l-2 2" fill="#824132"/><path d="M76 52l-2-2a789 789 0 0 0 2-2 2 2 0 1 1 0 4" fill="#3A767B"/><path d="M74 50l1-2-1 2" fill="#4D4333"/></g></svg>