<svg width="141" height="161" xmlns="http://www.w3.org/2000/svg" xmlns:xlink="http://www.w3.org/1999/xlink">
  <defs>
    <path d="M65.9 30.8l-7.4-.1V19h14v11.6h-6.6m7.6 0V19h14v10.7c-4.5.4-9.2.7-14 .9m-16 0c-4.9-.2-9.6-.6-14-1V19.1h14v11.5m31-.9V19.1h14v8.7c-4.4.8-9 1.4-14 1.9m-49-.4c-4.5-.5-8.7-1.2-12.5-2v-8.2h12.5v10.2m64-1.7V19h12.4v5.4a85.2 85.2 0 0 1-12.5 3M26 27.2a88.6 88.6 0 0 1-14-4v-4h14v8m94-4v-4h7.5a32.3 32.3 0 0 1-7.6 4m-109-.3c-2.7-1.2-5-2.4-6.6-3.7H11v3.7M128.7 18h-8.8V4h1.7c6.1 2.7 9.6 5.8 9.6 9.2 0 1.6-.8 3.3-2.5 4.8m-12.8 0h-12.5v-5c3.5-.8 5.5-1.7 5.5-2.7v-.1l.3-6.2h6.7v14m-13.5 0h-14v-3a137 137 0 0 0 14-1.8V18m-15 0h-14v-2.3c5-.1 9.8-.3 14-.7v3m-15 0h-14v-2a368.7 368.7 0 0 0 14 0v2m-15 0h-14v-2.7l14 .5V18m-18 0H27v-4.5c3.3.6 7.6 1.1 12.5 1.5v3M26 18H12V4h6.3l.3 6.2v.1c0 1.1 2.7 2.2 7.4 3V18m-15 0H3C1.5 16.6.6 15 .6 13.3.5 9.9 4 6.8 10.1 4h.9v14M116 3h-6.7l.1-2.9L116 2v1.1m-97.6 0h-5.7l5.6-1.8V3" id="a"/>
    <path d="M69.5 28.7V17h-14v11.6h-1V17h-14v10.6l-4-.4V17H24v8.2l-1-.2v-8H9v4c-.4 0-.7-.2-1-.3V17H1.3a4 4 0 0 1-1.2-1H8V2H7l2.5-1h5.7v1H9v14h14v-4.7l1 .2V16h12.5v-3l4 .3V16h14v-2h1v2.2h14V14h1v2h14v-3h1v3h14v-4.8l1-.3V16h12.4V2h-6.7V1h6.7V0l5.7 2.1H117v14h8.8l-1.2 1H117v4a31 31 0 0 1-4 1.4v-5.4h-12.5v8.5l-1 .2V17h-14v10.6h-1V17.2h-14v11.6h-1" id="c"/>
  </defs>
  <g fill="none" fill-rule="evenodd">
    <g transform="translate(0 130)">
      <mask id="b" fill="#fff">
        <use xlink:href="#a"/>
      </mask>
      <path d="M65.9 30.8l-7.4-.1V19h14v11.6h-6.6m7.6 0V19h14v10.7c-4.5.4-9.2.7-14 .9m-16 0c-4.9-.2-9.6-.6-14-1V19.1h14v11.5m31-.9V19.1h14v8.7c-4.4.8-9 1.4-14 1.9m-49-.4c-4.5-.5-8.7-1.2-12.5-2v-8.2h12.5v10.2m64-1.7V19h12.4v5.4a85.2 85.2 0 0 1-12.5 3M26 27.2a88.6 88.6 0 0 1-14-4v-4h14v8m94-4v-4h7.5a32.3 32.3 0 0 1-7.6 4m-109-.3c-2.7-1.2-5-2.4-6.6-3.7H11v3.7M128.7 18h-8.8V4h1.7c6.1 2.7 9.6 5.8 9.6 9.2 0 1.6-.8 3.3-2.5 4.8m-12.8 0h-12.5v-5c3.5-.8 5.5-1.7 5.5-2.7v-.1l.3-6.2h6.7v14m-13.5 0h-14v-3a137 137 0 0 0 14-1.8V18m-15 0h-14v-2.3c5-.1 9.8-.3 14-.7v3m-15 0h-14v-2a368.7 368.7 0 0 0 14 0v2m-15 0h-14v-2.7l14 .5V18m-18 0H27v-4.5c3.3.6 7.6 1.1 12.5 1.5v3M26 18H12V4h6.3l.3 6.2v.1c0 1.1 2.7 2.2 7.4 3V18m-15 0H3C1.5 16.6.6 15 .6 13.3.5 9.9 4 6.8 10.1 4h.9v14M116 3h-6.7l.1-2.9L116 2v1.1m-97.6 0h-5.7l5.6-1.8V3" mask="url(#b)"/>
    </g>
    <g transform="translate(3 132)">
      <mask id="d" fill="#fff">
        <use xlink:href="#c"/>
      </mask>
      <path d="M69.5 28.7V17h-14v11.6h-1V17h-14v10.6l-4-.4V17H24v8.2l-1-.2v-8H9v4c-.4 0-.7-.2-1-.3V17H1.3a4 4 0 0 1-1.2-1H8V2H7l2.5-1h5.7v1H9v14h14v-4.7l1 .2V16h12.5v-3l4 .3V16h14v-2h1v2.2h14V14h1v2h14v-3h1v3h14v-4.8l1-.3V16h12.4V2h-6.7V1h6.7V0l5.7 2.1H117v14h8.8l-1.2 1H117v4a31 31 0 0 1-4 1.4v-5.4h-12.5v8.5l-1 .2V17h-14v10.6h-1V17.2h-14v11.6h-1" mask="url(#d)"/>
    </g>
    <path d="M114 40H13.5l5.2 100.3v.1c0 3 20.2 5.6 45.1 5.6 25 0 45.2-2.5 45.2-5.6v-.1L114 40" fill="#D4CFC1"/>
    <path d="M109.1 59.9l-.3 42a42.5 42.5 0 0 0 21.7-19 15 15 0 0 0 .8-11.7c-2.7-7-10.1-11.6-18.6-11.6a21 21 0 0 0-3.6.3m-8.3 53.6v-5.7l.4-51v-2.9l2.8-.9c2.8-.9 5.7-1.3 8.7-1.3 11.7 0 22.1 6.7 26 16.6a22.7 22.7 0 0 1-1 18c-4.7 10.4-16.3 19.7-31.6 25.3l-5.3 2" fill="#D4CFC1"/>
    <path d="M68.5 24.4c-4-.2-8.5-2.6-8.8-7-.2-2.5 2.1-3.8 3.8-5 3-2.6 2.6-5.5.6-8.7-1.1-1.7-4-.1-2.8 1.7 2.2 3.5.3 4.1-2.2 6.2a7.7 7.7 0 0 0-2.7 5.8c-.4 6.3 6.8 10 12.1 10.3 2.1.1 2.1-3.1 0-3.3" fill="#505351"/>
    <path d="M77.7 23.3c-3-1-5.7-2-8.2-3.6-4.1-2.7-1.9-6 .8-8.3 3-2.7 5-5.4 3.3-9.6-.8-2-4-1-3.2.9 2.3 5.7-6.3 7.3-6.5 13-.3 6.5 7.8 9 12.9 10.8 2 .7 2.8-2.5.9-3.2" fill="#505351"/>
    <path d="M114 40.6c0 3.5-22.5 6.3-50.2 6.3-27.8 0-50.4-2.8-50.4-6.3s22.6-6.3 50.4-6.3c27.7 0 50.3 2.8 50.3 6.3" fill="#E3E1CD"/>
    <path d="M63.8 142c-25 0-45.2-2.4-45.2-5.5v-.1l-.2-5h.2v.6c0 .7 1 1.4 3 2l.2 4.3h2.6a197 197 0 0 0 39.4 3c21.2 0 34.8-1.8 39.9-3.1l.8-2.6v-1.2c2.8-.7 4.4-1.5 4.4-2.4v-.6h.3l-.3 5v.1c0 3-20.2 5.6-45.2 5.6" fill="#DDDACC"/>
    <path d="M108.2 63.6H19.3l3.8 72 .8 2.6c5 1.3 18.6 3 39.9 3 21.2 0 34.8-1.7 39.9-3l.8-2.6 3.7-72" fill="#6E2A20"/>
    <path d="M108 64c0 2.8-19.8 5.1-44.3 5.1-24.5 0-44.4-2.3-44.4-5 0-2.9 19.9-5.2 44.4-5.2s44.4 2.3 44.4 5.1" fill="#A4422C"/>
    <path d="M18 129.8l-.5-10.7.6 10.7m-.6-11.7l-.8-14 .8 14m-.8-15L16 90.6l.7 12.5M16 86.6l-.8-14 .8 14m-.8-15l-.7-14 .7 14m-.8-15l-.7-14 .7 14m-.8-15v-.8.8" fill="#FFFFFE"/>
    <path d="M17.5 119.1v-1 1m-.7-15l-.1-1v1m-.6-13.5l-.3-4 .3 4m-1-18v-1 1m-.7-15l-.1-1v1m-.7-15v-1 1" fill="#F8F7F5"/>
    <path fill="#FFFFFE" d="M13.5 40.4V40v.4"/>
    <path d="M18 129.8l-3.6-72.2v-1l-1-15.8c1.2 3.4 23.3 6 50.4 6 27 0 49.1-2.6 50.2-6l-.6 10.8v.1h-.7a28 28 0 0 0-8.2 1.2l.2-4.1h-5.6l-.6 12A264 264 0 0 0 63.7 59c-17.6 0-32.8 1.2-40 2.9L23 45.5h-6l4.2 81.7-3.2 2.6m-4.6-89.4V40h.1l-.1.4m100.6 0l-.2-.4h.2v.4" fill="#DBD6C9"/>
    <path d="M104.2 59.2l.3-6.3a28.6 28.6 0 0 1 8.9-1.2l-9.2 7.5" fill="#DBD6C9"/>
    <path d="M63.8 46.9c-27.1 0-49.2-2.7-50.3-6v-.5l.1-.4H114l.2.4v.4c-1.2 3.4-23.3 6-50.3 6" fill="#E8E5D3"/>
    <path d="M26.8 122.6L24 66.3C31.2 68 46.3 69 63.7 69c11.6 0 22.2-.5 30-1.3l-66.9 54.8" fill="#854638"/>
    <path d="M63.7 69.1c-17.4 0-32.5-1.1-39.8-2.8l-.2-4.5c7.2-1.7 22.4-2.9 40-2.9 14.1 0 26.7.8 34.8 2l-.2 3.1-4.5 3.8c-8 .8-18.5 1.3-30.1 1.3" fill="#B25B45"/>
    <path d="M23 134.4l-1.4-.4-.3-6.8 1.3-1 .4 8.2" fill="#DDDACC"/>
    <path d="M24.4 138.3h-2.6l-.2-4.3 1.4.4v1.2l.9 2.6.5.1" fill="#E4E2D6"/>
    <path d="M27.6 138.3h-3.2l-.5-.1-.8-2.6-.5-9.5 4.2-3.5.8 15.7" fill="#8E5042"/>
    <path d="M21.3 127.2L17 45.5h5.8l.8 16.3c-2.3.6-3.7 1.2-4.2 1.8h-.2v.3a.6.6 0 0 0 0 .3l3.3 62-1.3 1" fill="#E3DED2"/>
    <path d="M22.6 126.1l-3.2-61.9c.2.8 1.8 1.5 4.5 2l3 56.4-4.3 3.5M19.4 64v-.3h.1l-.1.3" fill="#9D695A"/>
    <path d="M24 66.3c-2.8-.6-4.4-1.3-4.6-2a.6.6 0 0 1 0-.4l.1-.3c.5-.6 2-1.2 4.2-1.8l.2 4.5" fill="#C07964"/>
    <path d="M104 61.9l-2.4-.5 2.6-2.2-.1 2.7" fill="#D8D3C5"/>
    <path d="M100.1 138.7h-5.6l3.7-71.5c2.2-.3 4.1-.6 5.6-1l-3.7 72.5" fill="#7B3629"/>
    <path d="M98.2 67.2l.1-3.2 3.3-2.6 2.5.5-.3 4.3c-1.5.4-3.4.7-5.6 1" fill="#AB4D38"/>
    <path d="M101.2 61.3a79 79 0 0 0-2.7-.4l.6-12.1h5.6l-.2 4-.5.2-2.7 1v7.3" fill="#DDDACC"/>
    <path d="M101.6 61.4l-.4-.1v-7.4l2.8-.9.5-.1-.3 6.3-2.6 2.2" fill="#DDDACC"/>
    <path d="M98.3 64l.2-3.1a79 79 0 0 1 3 .5L98.4 64" fill="#B66550"/>
    <path d="M43.8 106.4a7 7 0 0 1-3.5.7c-3.7 0-6.5-2.4-6.5-6.7 0-4.2 2.8-7 6.9-7a7 7 0 0 1 3.1.6l-.4 1.4c-.6-.3-1.5-.6-2.6-.6-3.2 0-5.2 2-5.2 5.5 0 3.2 1.9 5.3 5 5.3a8 8 0 0 0 2.9-.5l.3 1.3m2.8-6.1c0 2.9 1.5 5.4 4.2 5.4s4.3-2.5 4.3-5.5c0-2.7-1.4-5.4-4.3-5.4-2.8 0-4.2 2.6-4.2 5.5zm10.3-.2c0 4.6-2.8 7-6.2 7-3.5 0-6-2.7-6-6.7 0-4.2 2.7-7 6.2-7 3.6 0 6 2.8 6 6.7zm11.5 6.3c-.7.4-2 .7-3.5.7-3.8 0-6.6-2.4-6.6-6.7 0-4.2 2.8-7 7-7 1.6 0 2.6.4 3 .6l-.3 1.4c-.7-.3-1.6-.6-2.7-.6-3.1 0-5.2 2-5.2 5.5 0 3.2 1.9 5.3 5.1 5.3 1 0 2.1-.2 2.8-.5l.4 1.3m2.7-6.1c0 2.9 1.6 5.4 4.3 5.4 2.7 0 4.2-2.5 4.2-5.5 0-2.7-1.4-5.4-4.2-5.4-2.8 0-4.3 2.6-4.3 5.5zm10.3-.2c0 4.6-2.7 7-6.1 7-3.5 0-6-2.7-6-6.7 0-4.2 2.6-7 6.2-7s6 2.8 6 6.7zm8.5 1.3l-1.3-3.9-.7-2.4-.7 2.4-1.3 3.9h4zm-4.4 1.3l-1.4 4.2h-1.7l4.5-13.3h2l4.6 13.3h-1.9l-1.4-4.2h-4.7z" fill="#FBFAF2"/>
  </g>
</svg>
