<svg width="144" height="144" xmlns="http://www.w3.org/2000/svg" xmlns:xlink="http://www.w3.org/1999/xlink">
  <defs>
    <path d="M64.7 24l-3.7-.1v-1.3h14v1.1l-10.3.2M60 24a205 205 0 0 1-14-.7v-.6h14V24m19-.4v-.9h10.5c-3.4.4-6.9.7-10.5.9m-34-.4a200 200 0 0 1-5-.5h5v.5m66.6-4.5h-4.1V7l4.7-.9h9.3v9a57.7 57.7 0 0 1-10 3.5m-5 0h-14V9c5-.5 9.8-1 14-1.7v11.4m-15 0H79v-9c4.3-.2 8.5-.4 12.5-.8v9.7m-16.5 0H61V10a363.5 363.5 0 0 0 14-.1v8.7m-15 0H46V9.5c4.4.3 9.1.4 14 .5v8.6m-15 0H31V8.2c4.3.5 9 1 14 1.2v9.2m-15 0H17.8l-1.8-.5V6h1.3c3.7.8 8 1.5 12.7 2v10.5m-15-.8a31.4 31.4 0 0 1-14-7.5V6.1h14v11.7m107.5-3.2V6.1h7.6v.3c0 3-2.8 5.8-7.6 8.2m7.4-9.5h-7.4v-2a10 10 0 0 0 3.8-2.6 9 9 0 0 1 3.6 4.6m-8.4 0h-5c1.9-.5 3.5-1 5-1.6v1.6M13 5.1H1V2.5c.6-.7 1.3-1.4 2.2-2C4.5 2.2 7.9 3.8 13 5.1" id="a"/>
    <path d="M62 21.9h-1v-1.3H47v.6h-1v-.6h-5c-8.5-.9-16-2.3-22.2-4H31V6.1l1 .2v10.3h14V7.4l1 .1v9.1h14V8h1v8.6h14V8l4-.2v9h12.5v-10h1v9.7h14V5.2l1-.2v11.6h4c-6.1 1.7-13.6 3.1-22 4H80v.9l-4 .2v-1H62v1.2M17 16l-1-.3V4H2v4.2A6 6 0 0 1 .3 4.4 6 6 0 0 1 2 .4v2.7h12l4.3 1H17v12m105.5-3v-9h-9.3l4.3-1h5V1.5l1-.4v2h7.4l.2 1h-7.6v8.5l-1 .5" id="c"/>
  </defs>
  <g fill="none" fill-rule="evenodd">
    <g transform="translate(1 120)">
      <mask id="b" fill="#fff">
        <use xlink:href="#a"/>
      </mask>
      <path d="M64.7 24l-3.7-.1v-1.3h14v1.1l-10.3.2M60 24a205 205 0 0 1-14-.7v-.6h14V24m19-.4v-.9h10.5c-3.4.4-6.9.7-10.5.9m-34-.4a200 200 0 0 1-5-.5h5v.5m66.6-4.5h-4.1V7l4.7-.9h9.3v9a57.7 57.7 0 0 1-10 3.5m-5 0h-14V9c5-.5 9.8-1 14-1.7v11.4m-15 0H79v-9c4.3-.2 8.5-.4 12.5-.8v9.7m-16.5 0H61V10a363.5 363.5 0 0 0 14-.1v8.7m-15 0H46V9.5c4.4.3 9.1.4 14 .5v8.6m-15 0H31V8.2c4.3.5 9 1 14 1.2v9.2m-15 0H17.8l-1.8-.5V6h1.3c3.7.8 8 1.5 12.7 2v10.5m-15-.8a31.4 31.4 0 0 1-14-7.5V6.1h14v11.7m107.5-3.2V6.1h7.6v.3c0 3-2.8 5.8-7.6 8.2m7.4-9.5h-7.4v-2a10 10 0 0 0 3.8-2.6 9 9 0 0 1 3.6 4.6m-8.4 0h-5c1.9-.5 3.5-1 5-1.6v1.6M13 5.1H1V2.5c.6-.7 1.3-1.4 2.2-2C4.5 2.2 7.9 3.8 13 5.1" mask="url(#b)"/>
    </g>
    <g transform="translate(0 122)">
      <mask id="d" fill="#fff">
        <use xlink:href="#c"/>
      </mask>
      <path d="M62 21.9h-1v-1.3H47v.6h-1v-.6h-5c-8.5-.9-16-2.3-22.2-4H31V6.1l1 .2v10.3h14V7.4l1 .1v9.1h14V8h1v8.6h14V8l4-.2v9h12.5v-10h1v9.7h14V5.2l1-.2v11.6h4c-6.1 1.7-13.6 3.1-22 4H80v.9l-4 .2v-1H62v1.2M17 16l-1-.3V4H2v4.2A6 6 0 0 1 .3 4.4 6 6 0 0 1 2 .4v2.7h12l4.3 1H17v12m105.5-3v-9h-9.3l4.3-1h5V1.5l1-.4v2h7.4l.2 1h-7.6v8.5l-1 .5" mask="url(#d)"/>
    </g>
    <path d="M128 119c0 6-28 11-62.2 11-34.4 0-62.2-5-62.2-11s27.8-11 62.2-11c34.3 0 62.1 5 62.1 11" fill="#D4CFC1"/>
    <path d="M65.8 130H61c-4.9 0-9.6-.2-14-.5h-1a257 257 0 0 1-15-1.4c-16.5-2-27.4-5.3-27.4-9v-.1c0-.7.4-1.4 1.1-2 5.5 5 30.7 8.9 61 8.9 30.4 0 55.6-3.9 61.1-9 .7.7 1.1 1.4 1.1 2v.1c0 1.5-1.6 2.8-4.4 4.1l-1 .4a46 46 0 0 1-9.3 2.6 121.8 121.8 0 0 1-5.7 1 201.1 201.1 0 0 1-27.5 2.6 312.6 312.6 0 0 1-14.2.3" fill="#BEBBAF"/>
    <path d="M65.2 121.1C42 121.1 23 118.4 23 115c0-.8 1.1-1.5 3-2.3a32 32 0 0 0 14.3 3.4h48.1a32 32 0 0 0 15-3.7c2.7.8 4.2 1.7 4.2 2.6 0 3.5-19 6.2-42.3 6.2" fill="#BEBBAF"/>
    <path d="M65 26.7c-4.4-.2-9.3-2.9-9.7-7.8-.2-2.7 2.4-4 4.2-5.5 3.4-2.7 2.9-6 .7-9.4-1.2-2-4.3-.2-3.1 1.8 2.4 3.8.4 4.5-2.4 6.8a8.4 8.4 0 0 0-3 6.3C51.4 26 59.3 30 65 30.3c2.4.1 2.3-3.5 0-3.6" fill="#505351"/>
    <path d="M75 25.5c-3-1-6.1-2.2-8.9-4-4.5-3-2-6.5.9-9 3.4-3 5.4-6 3.6-10.6-.9-2.1-4.3-1.2-3.5 1 2.5 6.2-6.9 8-7.1 14.1-.3 7.3 8.5 10 14.1 12 2.2.7 3.2-2.8 1-3.5" fill="#505351"/>
    <path d="M118.5 56.3l-.2 34c8.5-4 14.8-9.4 17.5-15.4 1.5-3.3 1.7-6.6.6-9.5-2.1-5.6-8.1-9.3-15-9.3-1 0-2 0-2.9.2m-6.7 43.3V95l.4-41.2v-2.3l2.2-.7a23 23 0 0 1 7-1.1c9.5 0 17.9 5.4 21 13.4 1.7 4.5 1.4 9.5-.8 14.4-3.8 8.5-13.1 16-25.5 20.5l-4.3 1.6" fill="#D4CFC1"/>
    <path d="M8 46.7v37.1A32.1 32.1 0 0 0 40.3 116h48.1a32.1 32.1 0 0 0 32.2-32.2V46.7H8" fill="#D4CFC1"/>
    <path d="M13.2 65.4v18.4a27 27 0 0 0 27 27h48.1a27 27 0 0 0 27-27V65.4H13.2" fill="#6E2A20"/>
    <path d="M115.3 65.7c0 3.5-22.8 6.4-51 6.4-28.3 0-51.1-2.9-51.1-6.4 0-3.6 22.8-6.4 51-6.4 28.3 0 51.1 2.8 51.1 6.4" fill="#A4422C"/>
    <path d="M48.3 114.5H42c-7.3 0-14-2.6-19.2-7l2-1.5c2.1 1.5 4.5 2.7 7 3.5 4.8 3.2 10.5 5 16.5 5" fill="#DDDACC"/>
    <path d="M31.9 109.5c-2.6-.8-5-2-7.1-3.5l1.6-1.2a30 30 0 0 0 5.5 4.7" fill="#8E5042"/>
    <path d="M82.8 114.5h-6.4a30 30 0 0 0 14.6-3.8c4.5-.4 8.7-2 12.2-4.3-5.3 5-12.5 8-20.4 8m29.8-50.8c-1.6-.6-3.7-1.1-6.4-1.6V50.2h6.4v13.4" fill="#D8D3C5"/>
    <path d="M91 110.7a29.8 29.8 0 0 0 15.2-26V69.3c2.7-.5 4.8-1 6.4-1.5v16.9c0 8.5-3.6 16.2-9.4 21.7a26.6 26.6 0 0 1-12.2 4.3" fill="#7B3629"/>
    <path d="M106.2 69.3V62c2.7.5 4.8 1 6.4 1.6v4.2c-1.6.5-3.7 1-6.4 1.5" fill="#AB4D38"/>
    <path d="M20.5 109.2A32 32 0 0 1 8.1 84.5V46.6h95.4L86 59.9c-6.6-.4-14-.6-21.7-.6-20 0-37.4 1.4-45.8 3.5V50.2h-6.3v34.5c0 9.1 4.1 17.3 10.6 22.8l-2.3 1.7" fill="#DBD6C9"/>
    <path d="M26.4 104.8a29.7 29.7 0 0 1-7.9-20.1V68.5A226.6 226.6 0 0 0 70 72l-43.5 32.8" fill="#854638"/>
    <path d="M64.3 72c-20 0-37.4-1.4-45.8-3.5v-5.7c8.4-2 25.7-3.5 45.8-3.5 7.7 0 15.1.2 21.7.6L69.9 72h-5.6" fill="#B25B45"/>
    <path d="M22.8 107.5a29.7 29.7 0 0 1-10.6-22.8V50.2h6.3v12.6c-3.1.8-5 1.7-5.3 2.6v.2a1 1 0 0 0 0 .1v18.1A27 27 0 0 0 24.8 106l-2 1.5" fill="#E3E0D2"/>
    <path d="M24.8 106a27 27 0 0 1-11.6-22.2v-18c0 1 2 1.9 5.3 2.7v16.2c0 7.8 3 14.8 7.9 20.1l-1.6 1.2M13.2 65.6v-.2.2" fill="#9E685A"/>
    <path d="M18.5 68.5c-3.3-.8-5.3-1.8-5.3-2.8v-.3c.3-1 2.2-1.8 5.3-2.6v5.7" fill="#C07864"/>
    <path d="M120.5 46.7c0 3.6-25.2 6.6-56.2 6.6-31 0-56.2-3-56.2-6.6 0-3.6 25.1-6.6 56.2-6.6 31 0 56.2 3 56.2 6.6" fill="#E3E1CD"/>
  </g>
</svg>
