<svg width="116" height="121" xmlns="http://www.w3.org/2000/svg" xmlns:xlink="http://www.w3.org/1999/xlink">
  <defs>
    <path d="M65.91 28.37a249 249 0 0 1-9.95-.2v-5.04h14v5.2a247 247 0 0 1-4.05.04m5.05-.05v-5.19h14v4.48c-4.48.37-9.17.6-14 .7m-19-.34c-4.34-.26-8.52-.63-12.5-1.1v-3.74h12.5v4.84m34-.44v-4.4h14v2.68c-4.36.71-9.05 1.3-14 1.72m-47.5-.78c-5.05-.62-9.74-1.42-14-2.35v-1.27h14v3.62m62.5-1.11v-2.5h11.57c-3.48.94-7.36 1.78-11.57 2.5m-77.5-1.47c-1.44-.33-2.83-.68-4.17-1.04h4.17v1.04m100.08-5.04h-7.58V8.77c.77-.44 1.17-.89 1.17-1.35l-.03-.17h.05l.04-.62h11.27v9.33a23.03 23.03 0 0 1-4.92 3.17m-8.58 0h-14v-7.1c6.48-.76 11.37-1.71 14-2.79v9.9m-15 0h-14v-5.9c5.16-.28 9.88-.65 14-1.1v7m-15 0h-14V13.7c4.9-.07 9.6-.21 14-.43v5.85m-15 0h-14v-5.5a417.58 417.58 0 0 0 14 .09v5.41m-18 0h-12.5v-6.28a322 322 0 0 0 12.5.66v5.62m-13.5 0h-14v-7.96c3.81.63 8.56 1.18 14 1.6v6.36m-15 0h-14V6.63h4.95l.04.62h.03l-.04.17c0 1.33 3.34 2.56 9.02 3.58v8.13m-15 0H8.3C3.35 16.67.55 13.85.55 10.86c0-1.46.66-2.88 1.91-4.23h6v12.5m119.86-13.5h-11.08l.3-5.51c4.74 1.63 8.43 3.5 10.78 5.51m-113.96 0h-4.9v-3.6A53.04 53.04 0 0 1 14.06.2l.3 5.43m-5.9 0H3.5A23.8 23.8 0 0 1 8.46 2.5v3.13" id="a"/>
    <path d="M67.96 26.33v-5.2h-14v5.04a228.9 228.9 0 0 1-4-.2v-4.84h-12.5v3.74l-1-.12v-3.62h-14v1.27l-1-.23v-1.04H17.3a61.1 61.1 0 0 1-11-4h.17V4.63h-6c.31-.34.66-.67 1.04-1h4.96V.5l1-.48v3.61h4.9l.05 1H7.46v12.5h14V9l1 .17v7.96h14v-6.36l1 .08v6.28h12.5v-5.62l4 .11v5.51h14v-5.41l1-.01v5.42h14v-5.85l1-.05v5.9h14v-7l1-.1v7.1h14V7.24c.38-.15.72-.31 1-.47v10.36h7.58a61.08 61.08 0 0 1-11 4H98.95v2.51l-1 .17v-2.68h-14v4.4l-1 .08v-4.48h-14v5.19l-1 .01m58.5-12.37V4.63h-11.27l.05-1h11.08c1.93 1.65 2.96 3.4 2.96 5.23 0 1.77-.98 3.49-2.82 5.1" id="c"/>
  </defs>
  <g fill="none" fill-rule="evenodd">
    <g transform="translate(-8 107)">
      <mask id="b" fill="#fff">
        <use xlink:href="#a"/>
      </mask>
      <path d="M65.91 28.37a249 249 0 0 1-9.95-.2v-5.04h14v5.2a247 247 0 0 1-4.05.04m5.05-.05v-5.19h14v4.48c-4.48.37-9.17.6-14 .7m-19-.34c-4.34-.26-8.52-.63-12.5-1.1v-3.74h12.5v4.84m34-.44v-4.4h14v2.68c-4.36.71-9.05 1.3-14 1.72m-47.5-.78c-5.05-.62-9.74-1.42-14-2.35v-1.27h14v3.62m62.5-1.11v-2.5h11.57c-3.48.94-7.36 1.78-11.57 2.5m-77.5-1.47c-1.44-.33-2.83-.68-4.17-1.04h4.17v1.04m100.08-5.04h-7.58V8.77c.77-.44 1.17-.89 1.17-1.35l-.03-.17h.05l.04-.62h11.27v9.33a23.03 23.03 0 0 1-4.92 3.17m-8.58 0h-14v-7.1c6.48-.76 11.37-1.71 14-2.79v9.9m-15 0h-14v-5.9c5.16-.28 9.88-.65 14-1.1v7m-15 0h-14V13.7c4.9-.07 9.6-.21 14-.43v5.85m-15 0h-14v-5.5a417.58 417.58 0 0 0 14 .09v5.41m-18 0h-12.5v-6.28a322 322 0 0 0 12.5.66v5.62m-13.5 0h-14v-7.96c3.81.63 8.56 1.18 14 1.6v6.36m-15 0h-14V6.63h4.95l.04.62h.03l-.04.17c0 1.33 3.34 2.56 9.02 3.58v8.13m-15 0H8.3C3.35 16.67.55 13.85.55 10.86c0-1.46.66-2.88 1.91-4.23h6v12.5m119.86-13.5h-11.08l.3-5.51c4.74 1.63 8.43 3.5 10.78 5.51m-113.96 0h-4.9v-3.6A53.04 53.04 0 0 1 14.06.2l.3 5.43m-5.9 0H3.5A23.8 23.8 0 0 1 8.46 2.5v3.13" mask="url(#b)"/>
    </g>
    <g transform="translate(-6 109)">
      <mask id="d" fill="#fff">
        <use xlink:href="#c"/>
      </mask>
      <path d="M67.96 26.33v-5.2h-14v5.04a228.9 228.9 0 0 1-4-.2v-4.84h-12.5v3.74l-1-.12v-3.62h-14v1.27l-1-.23v-1.04H17.3a61.1 61.1 0 0 1-11-4h.17V4.63h-6c.31-.34.66-.67 1.04-1h4.96V.5l1-.48v3.61h4.9l.05 1H7.46v12.5h14V9l1 .17v7.96h14v-6.36l1 .08v6.28h12.5v-5.62l4 .11v5.51h14v-5.41l1-.01v5.42h14v-5.85l1-.05v5.9h14v-7l1-.1v7.1h14V7.24c.38-.15.72-.31 1-.47v10.36h7.58a61.08 61.08 0 0 1-11 4H98.95v2.51l-1 .17v-2.68h-14v4.4l-1 .08v-4.48h-14v5.19l-1 .01m58.5-12.37V4.63h-11.27l.05-1h11.08c1.93 1.65 2.96 3.4 2.96 5.23 0 1.77-.98 3.49-2.82 5.1" mask="url(#d)"/>
    </g>
    <path d="M115.05 7.36H.55l5.9 106.9h.03l-.04.16c0 3.49 23 6.32 51.35 6.32s51.34-2.83 51.34-6.32l-.03-.17h.05l5.9-106.89" fill="#D4CFC1"/>
    <path d="M107.13 41H8.48l2.45 44.44h.1l-.02.06c0 2.28 20.98 4.14 46.86 4.14s46.86-1.86 46.86-4.14l-.05-.19L107.13 41" fill="#BA8F3A"/>
    <path d="M5.8 102.4l-.22-3.77.21 3.76m-.26-4.76l-.77-14 .77 14m-.83-15l-.77-14 .77 14m-.83-15l-.77-14 .77 14m-.99-18l-.69-12.5.7 12.5m-.75-13.5l-.68-12.16.68 12.16" fill="#FFFFFE"/>
    <path d="M5.58 98.63l-.05-1 .05 1m-.82-15l-.06-1 .06 1m-.83-15l-.06-1 .06 1m-.83-15l-.22-4 .22 4m-.9-16.5l-.06-1 .05 1m-.73-13.16L.55 7.37l.91 16.6" fill="#F8F7F5"/>
    <path fill="#FFFFFE" d="M114.32 20.57l.73-13.2-.73 13.2"/>
    <path d="M5.8 102.4L.54 7.35h114.5l-.73 13.21-10.51 7.93.61-11.14h-6.39l-.89 16.17-7.28 5.49c-8.62-.46-19.82-.73-32.06-.73-20.09 0-37.37.74-45.06 1.8l-1.46-26.45h-6.6l4.08 74.12c-1.5-.6-2.31-1.22-2.31-1.88l.03-.16h-.04l-.02-.52h-.29l.32 5.64h.03l-.04.17c0 .7.92 1.36 2.6 2l.38 6.65-3.63 2.73m9.97-7.51l-.01-.24.27.04-.26.2m5.97-4.5a114.8 114.8 0 0 1-6.27-.92l-.12-2.22a98 98 0 0 0 9.03 1.15l-2.64 1.99" fill="#DBD6C9"/>
    <path d="M24.37 88.4a98 98 0 0 1-9.03-1.16l-2.46-44.66c7.76 1.05 24.95 1.78 44.92 1.78 9.36 0 18.1-.16 25.56-.44L73.03 51.7l-.42-3.15a4.5 4.5 0 0 0-5.08-3.87l-16.38 2.2a4.51 4.51 0 0 0-3.87 5.07l1.4 10.43a4.5 4.5 0 0 0 5.05 3.87l-.9.68L38.22 60a5.3 5.3 0 0 0-.76-.27c.2-.48.3-1 .3-1.54v-9.57a4.1 4.1 0 0 0-4.1-4.1H18.6a4.1 4.1 0 0 0-4.1 4.1v9.57a4.1 4.1 0 0 0 4.1 4.1h13.53l-4.43 9.38a4.5 4.5 0 0 0 2.15 6l5.35 2.53-10.84 8.18M23 72.51a2.43 2.43 0 1 0 0 4.85 2.43 2.43 0 0 0 0-4.85M43.13 45.7a2.42 2.42 0 1 0 0 4.85 2.42 2.42 0 0 0 0-4.85" fill="#C4A052"/>
    <path d="M23 77.36a2.43 2.43 0 1 1 0-4.85 2.43 2.43 0 0 1 0 4.85m20.13-26.82a2.42 2.42 0 1 1 0-4.85 2.42 2.42 0 0 1 0 4.85" fill="#CAAB64"/>
    <path d="M63.89 74.4a2.42 2.42 0 1 1 0-4.84 2.42 2.42 0 0 1 0 4.84m32.19-21.61a2.42 2.42 0 0 1 .27-4.81l-.27 4.8" fill="#C39D4E"/>
    <path d="M32.14 62.3H18.6a4.1 4.1 0 0 1-4.1-4.1v-9.57a4.1 4.1 0 0 1 4.1-4.1h15.04a4.1 4.1 0 0 1 4.1 4.1v9.57c0 .54-.1 1.06-.3 1.54a4.46 4.46 0 0 0-1.6-.14 3.6 3.6 0 0 0 .57-1.96v-8.45c0-2-1.62-3.62-3.62-3.62H30.7c2 0 3.62 1.62 3.62 3.62v8.45c0 2-1.62 3.62-3.62 3.62h2.08a4.9 4.9 0 0 0-.57.9l-.06.14M19.8 45.57c-2 0-3.62 1.62-3.62 3.62v8.45c0 2 1.62 3.62 3.62 3.62h2.11c-2 0-3.62-1.62-3.62-3.62v-8.45c0-2 1.62-3.62 3.62-3.62H19.8" fill="#CCB06D"/>
    <path d="M21.91 61.26H19.8c-2 0-3.62-1.62-3.62-3.62v-8.45c0-2 1.62-3.62 3.62-3.62h2.11c-2 0-3.62 1.62-3.62 3.62v8.45c0 2 1.62 3.62 3.62 3.62m10.86 0h-2.08c2 0 3.62-1.62 3.62-3.62v-8.45c0-2-1.62-3.62-3.62-3.62h2.11c2 0 3.62 1.62 3.62 3.62v8.45c0 .72-.21 1.4-.58 1.96a4.5 4.5 0 0 0-3.07 1.66" fill="#D5BD84"/>
    <path d="M46.73 85.18c-.64 0-1.3-.14-1.92-.43l-9.6-4.54 16.1-12.13c.77 1.12.94 2.62.31 3.94l-3.96 8.4a3.99 3.99 0 0 1-5.3 1.9l2.1 1a3.95 3.95 0 0 0 5.3-1.9l3.96-8.4a3.98 3.98 0 0 0-1.9-5.3l-.01-.02 1.03-.77.32.15a4.51 4.51 0 0 1 2.15 6l-4.5 9.52a4.51 4.51 0 0 1-4.08 2.58" fill="#C6A459"/>
    <path d="M35.21 80.21l-5.35-2.53a4.5 4.5 0 0 1-2.15-6l4.43-9.38h1.5c.34 0 .65-.04.96-.11-.41.35-.76.8-1 1.32l-3.97 8.4a3.98 3.98 0 0 0 1.9 5.3l2.1 1a3.98 3.98 0 0 1-1.9-5.31l3.97-8.4a3.99 3.99 0 0 1 5.3-1.9l-2.1-1a3.96 3.96 0 0 0-2.6-.27c.5-.43.9-.97 1.15-1.6.26.08.5.17.76.28l14.63 6.92-1.03.77-2.09-.98c.67.31 1.2.79 1.6 1.36L35.21 80.2" fill="#CCB06D"/>
    <path d="M33.65 62.3h-1.51l.06-.14c.16-.32.35-.63.57-.9h.03a3.6 3.6 0 0 0 3.04-1.66 4.58 4.58 0 0 1 1.61.14 4.12 4.12 0 0 1-1.15 1.59c-.62.14-1.2.44-1.7.86-.3.07-.63.1-.95.1" fill="#D5BD84"/>
    <path d="M32.8 61.26h-.03a4.51 4.51 0 0 1 3.07-1.66 3.62 3.62 0 0 1-3.04 1.66" fill="#DDC999"/>
    <path d="M33.63 78.2l-2.1-1a3.98 3.98 0 0 1-1.9-5.3l3.97-8.4c.24-.52.59-.96 1-1.31a4.1 4.1 0 0 0 1.7-.86 4.02 4.02 0 0 1 2.6.28l2.1.99a3.99 3.99 0 0 0-5.3 1.9l-3.97 8.4a3.98 3.98 0 0 0 1.9 5.3" fill="#D5BD84"/>
    <path d="M34.6 62.19c.5-.42 1.08-.72 1.7-.86-.48.4-1.06.7-1.7.86" fill="#DDC999"/>
    <path d="M46.15 83.7c-.57 0-1.15-.13-1.7-.39l-2.1-.99a3.97 3.97 0 0 0 5.3-1.9l3.98-8.4a3.98 3.98 0 0 0-.32-3.94l.5-.38.01.01a3.98 3.98 0 0 1 1.9 5.3l-3.96 8.4a3.98 3.98 0 0 1-3.6 2.29" fill="#CEB473"/>
    <path d="M51.31 68.08a3.96 3.96 0 0 0-1.59-1.36l2.09.98-.5.38" fill="#D5BD84"/>
    <path d="M53.73 66.25l1.87-1.4 1.6-.22a4.03 4.03 0 0 1-1.28-.03l13.65-10.28.61 4.55a3.98 3.98 0 0 1-3.42 4.48l2.3-.31a4 4 0 0 0 3.42-4.48l-.79-5.85 1.34-1 .98 7.27a4.51 4.51 0 0 1-3.87 5.07l-16.39 2.2h-.02" fill="#C6A459"/>
    <path d="M53.15 66.29a4.5 4.5 0 0 1-4.47-3.9l-1.4-10.44a4.51 4.51 0 0 1 3.87-5.07l16.38-2.2a4.5 4.5 0 0 1 5.08 3.87l.42 3.15-1.34 1.01-.45-3.36a3.98 3.98 0 0 0-4.47-3.41l-2.3.3a3.98 3.98 0 0 1 4.48 3.41l.62 4.66L55.92 64.6a3.98 3.98 0 0 1-3.2-3.38L51.48 52a3.98 3.98 0 0 1 3.42-4.48l-2.3.31a4 4 0 0 0-3.42 4.48l1.24 9.2a3.98 3.98 0 0 0 4.48 3.42l.7-.1-1.87 1.41c-.2.03-.39.04-.58.04" fill="#CCB06D"/>
    <path d="M55.6 64.85l.32-.25a3.95 3.95 0 0 0 1.28.03l-1.6.22" fill="#CEB473"/>
    <path d="M54.36 64.98a3.98 3.98 0 0 1-3.94-3.45l-1.24-9.21a3.98 3.98 0 0 1 3.42-4.48l2.3-.31A3.98 3.98 0 0 0 51.48 52l1.24 9.2a3.98 3.98 0 0 0 3.2 3.39l-.33.25-.7.1c-.17.02-.35.03-.53.03" fill="#D5BD84"/>
    <path d="M66.76 63.35a3.98 3.98 0 0 0 3.42-4.48l-.61-4.55 2.12-1.6.79 5.84a3.98 3.98 0 0 1-3.42 4.48l-2.3.3" fill="#CEB473"/>
    <path d="M69.57 54.31l-.63-4.65a3.98 3.98 0 0 0-4.48-3.42l2.3-.3a3.98 3.98 0 0 1 4.48 3.41l.45 3.36-2.12 1.6" fill="#D5BD84"/>
    <path d="M80.5 84.94a5.24 5.24 0 0 1-4.28-2.2l-7.1-9.99a5.25 5.25 0 0 1 1.23-7.32l15.7-11.16a5.22 5.22 0 0 1 7.31 1.23l2.39 3.35-.16 2.72-3.2-4.5a4.63 4.63 0 0 0-6.46-1.09l-2.2 1.57a4.61 4.61 0 0 1 6.46 1.1l5.17 7.25-.56 10.06-11.25 8.01c-.93.66-2 .97-3.05.97m-5.93-20.88l-2.2 1.57a4.63 4.63 0 0 0-1.1 6.47l6.28 8.81a4.63 4.63 0 0 0 6.47 1.1l2.2-1.58a4.62 4.62 0 0 1-6.47-1.08l-6.27-8.82a4.64 4.64 0 0 1 1.1-6.47" fill="#C6A459"/>
    <path d="M81.33 82.86a4.63 4.63 0 0 1-3.78-1.95l-6.27-8.81a4.63 4.63 0 0 1 1.09-6.47l2.2-1.57a4.64 4.64 0 0 0-1.09 6.47l6.27 8.82a4.63 4.63 0 0 0 6.47 1.09L84.02 82c-.82.58-1.76.86-2.69.86M95.36 65.9l-5.17-7.26a4.63 4.63 0 0 0-6.47-1.09l2.2-1.57a4.61 4.61 0 0 1 6.47 1.1l3.2 4.49-.23 4.33" fill="#CEB473"/>
    <path d="M107.13 41.32c0 1.68-22.09 3.04-49.33 3.04S8.48 43 8.48 41.32c0-1.67 22.08-3.03 49.32-3.03 27.24 0 49.33 1.36 49.33 3.03" fill="#D1A739"/>
    <path d="M115.05 8c0 3.96-25.63 7.17-57.25 7.17S.55 11.96.55 8C.55 4.03 26.18.82 57.8.82s57.25 3.21 57.25 7.17" fill="#E3E1CD"/>
    <path d="M16.52 108.6a49.15 49.15 0 0 1-6.7-1.49l-.4-7.45 6.34-4.78.76 13.73" fill="#DDDACC"/>
    <path d="M9.42 99.66L9.05 93c1.59.59 3.86 1.14 6.7 1.64l.01.24-6.34 4.78m6.04-10.2a37.38 37.38 0 0 1-6.7-1.7L4.67 13.64h6.61l1.46 26.45c-2.04.28-3.41.58-3.97.9h-.3l.02.26a.2.2 0 0 0 0 .17l2.44 44.02h.1l-.02.06c0 .62 1.55 1.2 4.33 1.74l.12 2.22" fill="#E3DED2"/>
    <path d="M15.34 87.24c-2.78-.53-4.33-1.12-4.33-1.74l.01-.06h-.1L8.5 41.42c.2.41 1.75.8 4.38 1.16l2.46 44.66M8.5 41.25l-.01-.26h.29c-.16.09-.25.17-.28.26" fill="#CEB270"/>
    <path d="M12.88 42.58c-2.63-.36-4.18-.75-4.38-1.16a.2.2 0 0 1-.01-.17c.03-.09.12-.17.28-.26.56-.32 1.93-.62 3.97-.9l.14 2.49" fill="#D9B75C"/>
    <path d="M92.95 109.45l.77-13.93c2.39-.29 4.54-.6 6.44-.94l-.77 13.97c-1.91.33-4.07.63-6.44.9m1.06-19.09l.12-2.24a79 79 0 0 0 6.44-.92l-.13 2.2c-1.88.35-4.04.67-6.43.96" fill="#D8D3C5"/>
    <path d="M94.13 88.12l.67-12.16 4.43-3.15a5.25 5.25 0 0 0 1.23-7.32l-4.71-6.64.33-6.06a2.42 2.42 0 1 0 .27-4.8l.26-4.8c2.57-.2 4.74-.42 6.42-.65l-2.46 44.66a79 79 0 0 1-6.44.92" fill="#BE9644"/>
    <path d="M96.5 52.82c-.15 0-.28 0-.42-.03l.27-4.81h.15a2.43 2.43 0 0 1 0 4.84" fill="#C7A359"/>
    <path d="M94.8 75.96l.56-10.06 1.1 1.55a4.64 4.64 0 0 1-1.09 6.47l2.2-1.57a4.64 4.64 0 0 0 1.1-6.46l-3.08-4.32.16-2.72 4.72 6.64a5.25 5.25 0 0 1-1.24 7.32l-4.43 3.15" fill="#C9AA63"/>
    <path d="M95.37 73.92a4.64 4.64 0 0 0 1.1-6.47l-1.11-1.55.23-4.33 3.08 4.32a4.64 4.64 0 0 1-1.1 6.46l-2.2 1.57" fill="#D2B97C"/>
    <path d="M103.17 40.13c-1.67-.24-3.8-.46-6.36-.66l.33-5.94 6.67-5.03-.64 11.63" fill="#D8D3C5"/>
    <path fill="#DDDACC" d="M97.14 33.53l.9-16.17h6.38l-.61 11.14-6.67 5.03"/>
    <path d="M96.6 43.2l.22-3.73c2.54.2 4.69.42 6.35.66l-.14 2.4c-1.68.24-3.85.46-6.42.67" fill="#D4AD45"/>
    <path d="M57.79 116.3c-28.36 0-51.34-2.83-51.34-6.32l.03-.17h-.04l-.3-5.65h.28l.03.52h.03l-.04.17c0 .8 1.2 1.56 3.39 2.26l.27 4.97h6.61l-.19-3.47c9.35 1.55 24.36 2.56 41.27 2.56 13.6 0 25.98-.65 35.16-1.72l-.16 3.01h6.38l.22-3.9c6.13-1.05 9.74-2.33 9.74-3.7l-.03-.18h.05l.03-.52h.29l-.32 5.65h-.05l.03.17c0 3.48-22.99 6.31-51.34 6.31" fill="#DDDACC"/>
    <path d="M16.71 112.08h-6.6l-.28-4.97c1.68.54 3.94 1.04 6.69 1.5l.2 3.47" fill="#E4E2D6"/>
    <path d="M99.17 112.46H92.8l.16-3c2.37-.28 4.53-.58 6.44-.9l-.22 3.9" fill="#DFDCCF"/>
    <path d="M57.79 97.33c-17.22 0-32.46-1.05-41.77-2.65l5.7-4.3C31 91.5 43.74 92.2 57.8 92.2c14.13 0 26.93-.7 36.22-1.84l-.29 5.16c-9.26 1.12-21.94 1.8-35.93 1.8m42.37-2.74l.28-5.18c5.5-1 8.7-2.22 8.7-3.52l-.04-.16h.05l.03-.52h.29l-.32 5.64h-.05l.03.17c0 1.32-3.31 2.55-8.97 3.57" fill="#DDDACC"/>
    <path d="M16.02 94.68l-.27-.04-.29-5.18c1.85.33 3.95.64 6.27.92l-5.71 4.3M9.05 93c-1.69-.63-2.6-1.3-2.6-1.99l.03-.17h-.04l-.3-5.64h.28l.03.52h.03l-.04.16c0 .66.82 1.29 2.32 1.88L9.05 93" fill="#E3DED2"/>
    <path d="M15.75 94.64A40.62 40.62 0 0 1 9.05 93l-.29-5.24c1.54.61 3.82 1.18 6.7 1.7l.29 5.18" fill="#E9E5DB"/>
    <path d="M93.72 95.52l.29-5.16c2.39-.3 4.55-.61 6.43-.96l-.28 5.18c-1.9.34-4.05.65-6.44.94" fill="#DFDCCF"/>
  </g>
</svg>
