<svg width="132" height="159" xmlns="http://www.w3.org/2000/svg" xmlns:xlink="http://www.w3.org/1999/xlink">
  <defs>
    <path d="M78.4 29.6H72v-14h12.5v13.6l-6.1.4zm-24.4 0h14v-14H54v14zm-1 0c-5-.3-9.6-.7-14-1.2V15.6h14v14zm32.5-.5V15.6h14v11.8c-4.4.7-9 1.3-14 1.7zM38 28.2c-5-.6-9.8-1.4-14-2.4V15.6h14v12.6zm62.5-1V15.7h14v8.5c-4.1 1.2-8.8 2.3-14 3.2zM23 25.7A71.5 71.5 0 0 1 9 21v-5.4h14v10zm92.5-1.8v-8.2h14v.9a32.3 32.3 0 0 1-14 7.3zM8 20.5a17 17 0 0 1-6.4-4.9H8v5zm122.8-5.9h-.3v-5c.5 1 .8 1.9.8 2.8 0 .7-.2 1.5-.5 2.2zm-1.3 0h-14V1c6.6 2 11.5 4.6 14 7.3v6.3zm-15 0h-7.7c.6-.6 1-1.5 1.1-2.5V.6h6.6v14zm-90.2 0H24v-.4c0 .2.2.3.3.4zm-1.3 0H9V3.8c2.4-1.2 5.3-2.2 8.6-3.2H23v14zm-15 0H1c-.3-.7-.5-1.5-.5-2.2 0-3 2.7-5.7 7.5-8.1v10.3z" id="a"/>
    <path d="M64.9 32c-4.4 0-8.7-.2-13-.4v-14H38v12.8l-1-.2V17.6H23v10.2l-1-.2v-10H8V23l-1-.5v-4.9H.7a7 7 0 0 1-.6-1h7V6.3l1-.5v10.8h14v-14h-5.4l5.5-1.4V14c.1.8.4 1.5.9 2.1v.4h.3c.7.6 1.5 1 2.5 1h77.5c1 0 1.8-.4 2.5-1h7.7v-14l1 .4v13.6h14v-6.3l1 1.4v4.9h.3l-1.3 1.9v-.9h-14v8.2l-1 .3v-8.5h-14v11.7l-1 .1V17.6h-14v13.5l-1 .1V17.6H71v14h6.4c-4 .2-8.2.3-12.5.3zm-12-.4h14v-14H53v14zm60.3-29h-6.3V1l6.3 1.6z" id="c"/>
    <path d="M.8 8.6c.6-.6 1-1.5 1.1-2.5V.7v5.4C2 7 1.4 8 .8 8.6" id="e"/>
    <path d="M78.3 1.6H.8h77.5" id="g"/>
  </defs>
  <g fill="none" fill-rule="evenodd">
    <g transform="translate(0 129)">
      <mask id="b" fill="#fff">
        <use xlink:href="#a"/>
      </mask>
      <path d="M78.4 29.6H72v-14h12.5v13.6l-6.1.4zm-24.4 0h14v-14H54v14zm-1 0c-5-.3-9.6-.7-14-1.2V15.6h14v14zm32.5-.5V15.6h14v11.8c-4.4.7-9 1.3-14 1.7zM38 28.2c-5-.6-9.8-1.4-14-2.4V15.6h14v12.6zm62.5-1V15.7h14v8.5c-4.1 1.2-8.8 2.3-14 3.2zM23 25.7A71.5 71.5 0 0 1 9 21v-5.4h14v10zm92.5-1.8v-8.2h14v.9a32.3 32.3 0 0 1-14 7.3zM8 20.5a17 17 0 0 1-6.4-4.9H8v5zm122.8-5.9h-.3v-5c.5 1 .8 1.9.8 2.8 0 .7-.2 1.5-.5 2.2zm-1.3 0h-14V1c6.6 2 11.5 4.6 14 7.3v6.3zm-15 0h-7.7c.6-.6 1-1.5 1.1-2.5V.6h6.6v14zm-90.2 0H24v-.4c0 .2.2.3.3.4zm-1.3 0H9V3.8c2.4-1.2 5.3-2.2 8.6-3.2H23v14zm-15 0H1c-.3-.7-.5-1.5-.5-2.2 0-3 2.7-5.7 7.5-8.1v10.3z" mask="url(#b)"/>
    </g>
    <g transform="translate(1 127)">
      <mask id="d" fill="#fff">
        <use xlink:href="#c"/>
      </mask>
      <path d="M64.9 32c-4.4 0-8.7-.2-13-.4v-14H38v12.8l-1-.2V17.6H23v10.2l-1-.2v-10H8V23l-1-.5v-4.9H.7a7 7 0 0 1-.6-1h7V6.3l1-.5v10.8h14v-14h-5.4l5.5-1.4V14c.1.8.4 1.5.9 2.1v.4h.3c.7.6 1.5 1 2.5 1h77.5c1 0 1.8-.4 2.5-1h7.7v-14l1 .4v13.6h14v-6.3l1 1.4v4.9h.3l-1.3 1.9v-.9h-14v8.2l-1 .3v-8.5h-14v11.7l-1 .1V17.6h-14v13.5l-1 .1V17.6H71v14h6.4c-4 .2-8.2.3-12.5.3zm-12-.4h14v-14H53v14zm60.3-29h-6.3V1l6.3 1.6z" mask="url(#d)"/>
    </g>
    <path fill="#E3E1CD" d="M34 18.1h63.2V.1H33.9z"/>
    <path d="M97.3 18.1H33.7L23.1 38.3V141c.2 2 1.7 3.5 3.7 3.5h77.5c2 0 3.5-1.6 3.6-3.5V39.3L97.3 18.1" fill="#D4CFC1"/>
    <g transform="translate(106 135)">
      <mask id="f" fill="#fff">
        <use xlink:href="#e"/>
      </mask>
      <path d="M.8 8.6c.6-.6 1-1.5 1.1-2.5V.7v5.4C2 7 1.4 8 .8 8.6" mask="url(#f)"/>
    </g>
    <g transform="translate(26 143)">
      <mask id="h" fill="#fff">
        <use xlink:href="#g"/>
      </mask>
      <path d="M78.3 1.6H.8h77.5" mask="url(#h)"/>
    </g>
    <path d="M104.3 144.6H26.8c-2 0-3.5-1.6-3.6-3.5v-5.4c0 2 1.6 3.5 3.6 3.5h77.5c2 0 3.5-1.5 3.6-3.5v5.4a3.7 3.7 0 0 1-3.6 3.5" fill="#C3BFB2"/>
    <path fill="#EDBF49" d="M23.1 95.8H108V61.5H23.1z"/>
    <path d="M91.5 86.6L87 78.4l-1.6 2v6.2H81v-19h4.3V76l1.3-2 4.3-6.3h5.3l-6.3 8 6.6 10.9h-5zm-13 0H66.7v-19H71V83h7.5v3.6zm-19.8 0H63v-19h-4.3v19zm-7.4 0l-.3-7.2-.2-7.8c-.7 2.4-1.4 5-2.2 7.3l-2.3 7.4H43L41 79c-.6-2.3-1.3-5-1.7-7.4l-.4 7.8-.4 7.2h-4l1.3-19h5.7l1.8 6.4c.6 2.2 1.2 4.5 1.6 6.8h.1l1.8-6.8 2-6.3h5.6l1 18.9h-4.1z" fill="#FBFAF2"/>
    <path d="M23.1 104.2v-8.4h2.5v6.5l-2.5 1.9m2.5-42.7h-2.5V38.3h2.5v23.2" fill="#DBD6C9"/>
    <path fill="#F1C962" d="M25.6 95.8h-2.5V61.5h2.5v34.3"/>
    <path d="M30.6 98.5v-2.7h3.7l-3.7 2.7m49.2-37H30.6V38.3h69v8.2l-19.8 15" fill="#DBD6C9"/>
    <path d="M34.3 95.8h-3.7V61.5h49.2L71 68v-.4h-4.3v3.6L63 74.1v-6.4h-4.3v9.7L55.1 80l-.7-12.4h-5.6l-2 6.3-1.8 6.8c-.5-2.3-1-4.6-1.7-6.8l-1.8-6.3h-5.7l-1.2 18.9h4l.3-7.2.3-7.8c.5 2.5 1.2 5.1 1.8 7.4l2 7.3h3.3l2.3-7.4c.8-2.2 1.5-4.9 2.1-7.3h.1l.2 7.8.1 3.7-16.8 12.7" fill="#F1C962"/>
    <path d="M38.5 86.6h-4l1.3-19h5.7l1.8 6.4c.6 2.2 1.2 4.5 1.6 6.8h.1l1.8-6.8 2-6.3h5.6l.7 12.4-4 3-.1-3.7-.2-7.8c-.7 2.4-1.4 5-2.2 7.3l-2.3 7.4H43L41 79c-.6-2.3-1.3-5-1.7-7.4l-.4 7.8-.4 7.2m20.2-9.2v-9.7H63V74l-4.3 3.3m8-6v-3.7H71v.4l-4.3 3.2" fill="#FBFAF4"/>
    <path fill="#FFFFFE" d="M108 40.2v-.9l-.6-1h.5v2"/>
    <path fill="#DBD6C9" d="M104.7 42.7v-4.4h2.7l.5 1v1l-3.2 2.4"/>
    <path d="M30.6 135.7h-5v-33.4l5-3.8v37.2zm-5-97.4h5-5z" fill="#DDDACC"/>
    <path d="M25.6 102.3v-6.5h5v2.7l-5 3.8m5-40.8h-5V38.3h5v23.2" fill="#E3DED2"/>
    <path fill="#F4D37D" d="M25.6 95.8h5V61.5h-5z"/>
    <path d="M99.7 135.7h5V95.8h-5v40zm5-74.2h-5v-15l5-3.8v18.8z" fill="#D8D3C5"/>
    <path fill="#F0C455" d="M99.7 95.8h5V61.5h-5z"/>
    <path fill="#D8D3C5" d="M99.7 38.3h5-5z"/>
    <path fill="#DDDACC" d="M99.7 46.5v-8.2h5v4.4l-5 3.8"/>
  </g>
</svg>
