<svg width="132" height="191" xmlns="http://www.w3.org/2000/svg" xmlns:xlink="http://www.w3.org/1999/xlink">
  <defs>
    <path d="M65.91 32.18c-3.38 0-6.7-.06-9.95-.2V21.11h14v11.04c-1.34.02-2.69.03-4.05.03zm5.05-.05V21.11h14v10.32a232 232 0 0 1-14 .7zm-19-.35a209.5 209.5 0 0 1-12.5-1.09v-9.58h12.5v10.67zm34-.44V21.11h14v8.51c-4.36.72-9.05 1.3-14 1.72zm-47.5-.77a153.6 153.6 0 0 1-14-2.36v-7.1h14v9.46zm62.5-1.11V21.1h14v5.14a115.61 115.61 0 0 1-14 3.2zm-77.5-1.47a74.2 74.2 0 0 1-14-4.48v-2.4h14v6.88zm92.5-2.05v-4.83h10.77c-2.61 1.77-6.27 3.4-10.77 4.83zm-107.5-2.9A28.15 28.15 0 0 1 5.1 21.1h3.37v1.93zm119.61-2.93h-12.11v-14h6.98a24.08 24.08 0 0 1 5.52 3.46v10.21l-.39.33zm-13.11 0h-14V9.94c.9-.6 1.4-1.22 1.4-1.87l.18-1.96h12.42v14zm-15 0h-14v-6.36c6.31-.77 11.26-1.9 14-3.25v9.6zm-15 0h-14v-5.32c5.08-.12 9.82-.44 14-.92v6.24zm-15 0h-14v-5.54a185.8 185.8 0 0 0 14 .24v5.3zm-18 0h-12.5v-7.5c3.45.72 7.7 1.3 12.5 1.69v5.8zm-13.5 0h-14v-14H30l.18 1.96c0 1.64 3.11 3.15 8.3 4.32v7.72zm-29 0h14v-14h-14v14zm-1 0h-4.7C1.66 18.4.54 16.57.54 14.68c0-3.03 2.87-5.88 7.92-8.37v13.8zm102.98-18h-8.53l.17-1.84c2.98.55 5.77 1.17 8.36 1.84zm-81.83 0h-5.15v-.98c1.6-.35 3.25-.68 4.97-.99l.18 1.97zm-6.15 0H20.4c1-.26 2.02-.51 3.07-.75v.75z" id="a"/>
    <path d="M66.96 31.15V20.11h-14v10.87a228.9 228.9 0 0 1-4-.2V20.11h-12.5v9.58l-1-.12v-9.46h-14v7.1l-1-.22v-6.88h-14v2.4l-1-.47V20.1H2.1c-.49-.33-.93-.66-1.35-1h4.71V5.3a63.95 63.95 0 0 1 11.93-4.2h3.07V.36l1-.23v.98h5.15l.38 4h-5.53v14h14v-7.72l1 .22v7.5h12.5V13.3c1.3.1 2.63.2 4 .27v5.54h14v-5.3l1-.02v5.32h14v-6.24l1-.12v6.36h14V9.5a9.9 9.9 0 0 0 1-.57V19.1h14v-14H99.54l.37-4h8.53a65.55 65.55 0 0 1 11.5 4h-6.98v14h12.11c-.4.34-.86.67-1.34 1h-10.77v4.83l-1 .31V20.1h-14v8.35l-1 .16V20.1h-14v10.23l-1 .09V20.1h-14v11.02l-1 .02zM6.46 19.11h14v-14h-14v14zm119-.33V8.57c1.84 1.61 2.82 3.33 2.82 5.1 0 1.78-.98 3.5-2.82 5.11z" id="c"/>
  </defs>
  <g fill="none" fill-rule="evenodd">
    <g transform="translate(0 158)">
      <mask id="b" fill="#fff">
        <use xlink:href="#a"/>
      </mask>
      <path d="M65.91 32.18c-3.38 0-6.7-.06-9.95-.2V21.11h14v11.04c-1.34.02-2.69.03-4.05.03zm5.05-.05V21.11h14v10.32a232 232 0 0 1-14 .7zm-19-.35a209.5 209.5 0 0 1-12.5-1.09v-9.58h12.5v10.67zm34-.44V21.11h14v8.51c-4.36.72-9.05 1.3-14 1.72zm-47.5-.77a153.6 153.6 0 0 1-14-2.36v-7.1h14v9.46zm62.5-1.11V21.1h14v5.14a115.61 115.61 0 0 1-14 3.2zm-77.5-1.47a74.2 74.2 0 0 1-14-4.48v-2.4h14v6.88zm92.5-2.05v-4.83h10.77c-2.61 1.77-6.27 3.4-10.77 4.83zm-107.5-2.9A28.15 28.15 0 0 1 5.1 21.1h3.37v1.93zm119.61-2.93h-12.11v-14h6.98a24.08 24.08 0 0 1 5.52 3.46v10.21l-.39.33zm-13.11 0h-14V9.94c.9-.6 1.4-1.22 1.4-1.87l.18-1.96h12.42v14zm-15 0h-14v-6.36c6.31-.77 11.26-1.9 14-3.25v9.6zm-15 0h-14v-5.32c5.08-.12 9.82-.44 14-.92v6.24zm-15 0h-14v-5.54a185.8 185.8 0 0 0 14 .24v5.3zm-18 0h-12.5v-7.5c3.45.72 7.7 1.3 12.5 1.69v5.8zm-13.5 0h-14v-14H30l.18 1.96c0 1.64 3.11 3.15 8.3 4.32v7.72zm-29 0h14v-14h-14v14zm-1 0h-4.7C1.66 18.4.54 16.57.54 14.68c0-3.03 2.87-5.88 7.92-8.37v13.8zm102.98-18h-8.53l.17-1.84c2.98.55 5.77 1.17 8.36 1.84zm-81.83 0h-5.15v-.98c1.6-.35 3.25-.68 4.97-.99l.18 1.97zm-6.15 0H20.4c1-.26 2.02-.51 3.07-.75v.75z" mask="url(#b)"/>
    </g>
    <g transform="translate(3 159)">
      <mask id="d" fill="#fff">
        <use xlink:href="#c"/>
      </mask>
      <path d="M66.96 31.15V20.11h-14v10.87a228.9 228.9 0 0 1-4-.2V20.11h-12.5v9.58l-1-.12v-9.46h-14v7.1l-1-.22v-6.88h-14v2.4l-1-.47V20.1H2.1c-.49-.33-.93-.66-1.35-1h4.71V5.3a63.95 63.95 0 0 1 11.93-4.2h3.07V.36l1-.23v.98h5.15l.38 4h-5.53v14h14v-7.72l1 .22v7.5h12.5V13.3c1.3.1 2.63.2 4 .27v5.54h14v-5.3l1-.02v5.32h14v-6.24l1-.12v6.36h14V9.5a9.9 9.9 0 0 0 1-.57V19.1h14v-14H99.54l.37-4h8.53a65.55 65.55 0 0 1 11.5 4h-6.98v14h12.11c-.4.34-.86.67-1.34 1h-10.77v4.83l-1 .31V20.1h-14v8.35l-1 .16V20.1h-14v10.23l-1 .09V20.1h-14v11.02l-1 .02zM6.46 19.11h14v-14h-14v14zm119-.33V8.57c1.84 1.61 2.82 3.33 2.82 5.1 0 1.78-.98 3.5-2.82 5.11z" mask="url(#d)"/>
    </g>
    <path d="M112.95 52.84H19.58l10.6 113.23c0 3.75 16.15 6.78 36.08 6.78 19.94 0 36.1-3.03 36.1-6.78l10.59-113.23" fill="#D4CFC1"/>
    <path d="M27.28 78.04l8.03 85.9c3.4 1.46 14.2 3.59 30.95 3.59 16.76 0 27.55-2.13 30.95-3.6l8.04-85.89H27.28" fill="#6CBC91"/>
    <path d="M105.25 78.04c0 4.12-17.46 7.45-38.99 7.45s-38.98-3.33-38.98-7.45c0-4.1 17.45-7.44 38.98-7.44 21.53 0 38.99 3.33 38.99 7.44" fill="#A7D4B8"/>
    <path d="M46.76 159.41a5.85 5.85 0 1 1-11.7 0 5.85 5.85 0 0 1 11.7 0m8.51-9.83a5.85 5.85 0 1 1-11.7 0 5.85 5.85 0 0 1 11.7 0" fill="#267A5E"/>
    <path d="M60.06 160.21a5.85 5.85 0 1 1-11.7 0 5.85 5.85 0 0 1 11.7 0m9.57-9.57a5.85 5.85 0 1 1-11.7 0 5.85 5.85 0 0 1 11.7 0" fill="#267A5E"/>
    <path d="M73.88 161.27a5.85 5.85 0 1 1-11.7 0 5.85 5.85 0 0 1 11.7 0m10.37-9.3a5.85 5.85 0 1 1-11.7 0 5.85 5.85 0 0 1 11.7 0" fill="#267A5E"/>
    <path d="M91.97 160.48a5.85 5.85 0 1 1-11.7 0 5.85 5.85 0 0 1 11.7 0m5.58-10.64a5.85 5.85 0 1 1-11.7 0 5.85 5.85 0 0 1 11.7 0" fill="#267A5E"/>
    <path d="M91.17 139.74a5.85 5.85 0 1 1-11.7 0 5.85 5.85 0 0 1 11.7 0m-45.74 1.59a5.85 5.85 0 1 1-11.7 0 5.85 5.85 0 0 1 11.7 0m17.29-.53a5.85 5.85 0 1 1-11.7 0 5.85 5.85 0 0 1 11.7 0" fill="#267A5E"/>
    <path fill="#D1A739" d="M73.08 165.99l-14.56-3.1L92.92.92l14.57 3.1-34.4 161.97"/>
    <path fill="#E3E1CD" d="M69.83 164.66l-2.08-.44L101.86 3.65l2.08.44-34.1 160.57"/>
    <path d="M22.97 89.1l-.14-1.49.14 1.5m-.51-5.5l-1.17-12.5 1.17 12.5m-1.27-13.5l-1.24-13.34 1.24 13.34" fill="#FFFFFE"/>
    <path d="M22.83 87.61l-.37-4 .37 4m-1.54-16.5l-.1-1 .1 1" fill="#F8F7F5"/>
    <path d="M26.33 125l-6.38-68.23H25l6.05 64.66-4.73 3.57m8.1-51.26l-1.58-16.97h48.21l-3.01 14.18a196 196 0 0 0-11.79-.35c-13.14 0-24.76 1.24-31.82 3.14" fill="#DBD6C9"/>
    <path d="M38.27 114.7l-3-32.14c7.12 1.78 18.35 2.93 31 2.93 3 0 5.92-.07 8.73-.19l-.76 3.58-34.19 25.77a2.52 2.52 0 0 0-1.78.05m19.4-23.23a2.53 2.53 0 1 0 0 5.06 2.53 2.53 0 0 0 0-5.06M41.7 90.4a2.53 2.53 0 1 0 0 5.06 2.53 2.53 0 0 0 0-5.06" fill="#81C49E"/>
    <path d="M66.26 85.49c-12.64 0-23.87-1.15-31-2.93l-.82-8.82c7.06-1.9 18.68-3.14 31.82-3.14 4.11 0 8.07.12 11.79.35L75 85.3c-2.8.12-5.73.19-8.74.19" fill="#B5DAC2"/>
    <path fill="#FFFFFE" d="M112.43 58.37l.15-1.6-.15 1.6"/>
    <path d="M95.22 73.06c-.73-.16-1.5-.3-2.3-.45l3.36-15.84h1.23l-1.47 15.67-.82.62m9.26-6.98l.87-9.3h7.23l-.32 3.44-7.78 5.86" fill="#DBD6C9"/>
    <path d="M92.37 75.21l.55-2.6c.8.14 1.57.3 2.3.45l-2.85 2.15" fill="#B5DAC2"/>
    <path d="M74.24 88.88l6.82-32.1h9.52l-5 23.56-11.34 8.54m13.92-10.5l4.6-21.6h3.52L92.37 75.2l-4.21 3.17" fill="#D7B352"/>
    <path fill="#E8E5D3" d="M85.57 80.34l5-23.57h2.18l-4.59 21.61-2.59 1.96"/>
    <path d="M74.95 149.04a5.85 5.85 0 1 1-11.7 0 5.85 5.85 0 0 1 11.7 0m4.25 12.23a5.85 5.85 0 1 1-11.7 0 5.85 5.85 0 0 1 11.7 0m-25-28.18a5.85 5.85 0 1 1-11.7 0 5.85 5.85 0 0 1 11.7 0m46.01-1.59a5.85 5.85 0 1 1-11.7 0 5.85 5.85 0 0 1 11.7 0" fill="#267A5E"/>
    <path d="M39.23 119.58c-.17 0-.34-.02-.5-.05l-.34-3.62 1.66-1.26a2.53 2.53 0 0 1-.82 4.93" fill="#97CEAD"/>
    <path d="M38.39 115.9l-.12-1.2a2.53 2.53 0 0 1 1.78-.05l-1.66 1.26" fill="#AAD5B9"/>
    <path d="M54.83 112.48a2.53 2.53 0 1 1 0-5.06 2.53 2.53 0 0 1 0 5.06m36.8 7.06a2.53 2.53 0 0 1 .42-5.02h.05l-.47 5.02M93.5 99.5a2.53 2.53 0 0 1 .46-4.77l-.45 4.77" fill="#97CEAD"/>
    <path d="M57.66 96.53a2.53 2.53 0 1 1 0-5.06 2.53 2.53 0 0 1 0 5.06" fill="#AAD5B9"/>
    <path d="M71.25 102.97a2.52 2.52 0 0 1 .8-3.74l-.8 3.74" fill="#97CEAD"/>
    <path d="M73.26 103.98c-.82 0-1.55-.4-2.01-1l.8-3.75a2.53 2.53 0 1 1 1.22 4.75" fill="#DEC06D"/>
    <path d="M41.7 95.47a2.53 2.53 0 1 1 .01-5.07 2.53 2.53 0 0 1 0 5.07" fill="#AAD5B9"/>
    <path d="M47.22 169.4c-7.42-1.2-12.13-2.96-12.13-4.94l-4.03-43.03.26-.2 4 42.7c1.48.65 4.4 1.42 8.6 2.08a11.8 11.8 0 0 0 3.3 1.58v1.8" fill="#DDDACC"/>
    <path d="M43.92 166c-4.2-.65-7.12-1.42-8.6-2.06l-4-42.7 5.38-4.06a2.53 2.53 0 0 0 2.02 2.35l1.5 15.99a5.86 5.86 0 0 0-6.49 5.81 5.85 5.85 0 0 0 7.56 5.6l.63 6.72A5.85 5.85 0 1 0 43 164.88c.13.39.45.76.92 1.13" fill="#88C7A2"/>
    <path d="M40.91 165.26a5.85 5.85 0 1 1 1-11.61l1.02 10.81c0 .14.02.28.07.42-.65.25-1.35.38-2.09.38m-1.33-18.08a5.85 5.85 0 1 1 .64-11.66l1.07 11.4c-.54.17-1.11.26-1.7.26" fill="#4B937A"/>
    <path d="M31.06 121.43l-6.05-64.66h7.84l1.59 16.97c-4.51 1.22-7.16 2.7-7.16 4.3 0 .1 0 .19.02.28l4.02 42.92-.26.19" fill="#E3DED2"/>
    <path d="M31.32 121.24L27.3 78.32c.3 1.59 3.22 3.06 7.96 4.24l3.01 32.14a2.53 2.53 0 0 0-1.57 2.48l-5.38 4.06" fill="#99CFAF"/>
    <path d="M35.26 82.56c-4.74-1.19-7.66-2.65-7.96-4.24a1.45 1.45 0 0 1-.02-.28c0-1.6 2.65-3.08 7.16-4.3l.82 8.82" fill="#C4E1CC"/>
    <path d="M38.72 119.53a2.53 2.53 0 0 1-2.02-2.35l1.69-1.27.33 3.62" fill="#AFD8BC"/>
    <path d="M36.7 117.18v-.14c0-1.05.65-1.96 1.57-2.34l.12 1.2-1.7 1.28" fill="#BCDDC5"/>
    <path d="M83.14 169.4v-1.81c1.1-.37 2.02-.77 2.72-1.19l.62-.08a60.27 60.27 0 0 0 8.78-1.7c-.23 1.9-4.88 3.61-12.12 4.77" fill="#D8D3C5"/>
    <path d="M85.86 166.4l.12-.07h.14l.36-.01-.62.08m1.5-.2a5.85 5.85 0 0 0 .95-11.15l.04-.41a5.83 5.83 0 0 0 7.95-1.18l-1.03 11v.15c-1.85.53-4.5 1.1-7.9 1.59m9.52-19.06a5.85 5.85 0 0 0-7.6-2.63l.06-.53a5.83 5.83 0 0 0 .71-7.67l.08-.77a5.84 5.84 0 0 0 7.78.6l-1.03 11" fill="#75C097"/>
    <path d="M86.12 166.33h-.14c.94-.6 1.45-1.22 1.45-1.87l.88-9.4a5.85 5.85 0 0 1-2.2 11.27m5.59-10.63c-1.25 0-2.4-.4-3.35-1.06l.95-10.13a5.83 5.83 0 0 1 7.6 2.63l-.6 6.32a5.84 5.84 0 0 1-4.6 2.23m-2.35-11.71l.71-7.67a5.82 5.82 0 0 1-.71 7.67" fill="#328368"/>
    <path d="M103.56 75.87c-1.57-.98-4.18-1.88-7.6-2.65l.08-.78 8.44-6.36-.92 9.8" fill="#D8D3C5"/>
    <path d="M98.72 127.6a5.84 5.84 0 0 0-7.76-.87l.67-7.19a2.54 2.54 0 1 0 .47-5.02l1.4-15.02a2.53 2.53 0 1 0 .45-4.77l1.1-11.66c3.55-.75 6.33-1.63 8.08-2.6l-4.4 47.12" fill="#75C097"/>
    <path d="M95.05 83.07l.92-9.85c3.4.77 6.02 1.67 7.6 2.65l-.44 4.6c-1.75.97-4.53 1.85-8.08 2.6" fill="#ADD7BC"/>
    <path fill="#DDDACC" d="M96.04 72.44l1.47-15.67h7.84l-.87 9.31-8.44 6.36"/>
    <path d="M94.36 137.34a5.82 5.82 0 0 1-4.22-1.8l.82-8.8a5.82 5.82 0 0 1 7.76.85l-.8 8.54a5.82 5.82 0 0 1-3.56 1.21" fill="#328368"/>
    <path d="M92.05 119.58c-.14 0-.28-.02-.42-.04l.47-5.02a2.53 2.53 0 0 1-.05 5.06m2.49-19.86a2.5 2.5 0 0 1-1.03-.22l.45-4.77a2.53 2.53 0 1 1 .58 4.99" fill="#A0D1B2"/>
    <path fill="#E3E1CD" d="M114.8 56.77h-98V45.21l11.58-3.98h76.38l10.03 3.98v11.56"/>
    <path fill="#D3D1BF" d="M16.8 56.77h98v-2.56h-98z"/>
    <path fill="#EBE9D9" d="M114.8 47.77l-10.04-3.98H28.38L16.8 47.77V45.2l11.57-3.98h76.38l10.03 3.98v2.56"/>
  </g>
</svg>
