<svg width="141" height="184" xmlns="http://www.w3.org/2000/svg" xmlns:xlink="http://www.w3.org/1999/xlink">
  <defs>
    <path d="M65.7 34.4h-2.2V29h14v5c-3.8.2-7.8.3-11.8.3zm-3.2 0c-4.9-.1-9.6-.3-14-.7v-4.6h14v5.2zm16-.4v-4.9h14v3.7c-4.5.6-9.2 1-14 1.2zm-34-.6c-4.4-.4-8.6-1-12.5-1.6v-2.7h12.5v4.3zm49-.7v-3.6h14v1.2c-4.3 1-9 1.8-14 2.4zm-62.5-1A113 113 0 0 1 19 29h12v2.6zm77.4-1.6v-1h4l-4 1zm0-5H121V12.6h-12.5v12.5zm-15 0h14V12.6h-14v12.5zm-1 0h-14V19c6-.7 10-1.7 10.5-2.8V16l.1-.1v-3.2h3.4V25zm-15 0h-14v-5.4c5.2 0 10-.2 14-.6v6zm-15 0h-14v-6c4 .4 8.8.6 14 .6v5.4zm-18 0H32V12.6h5.4v3.6h.1c.5.9 3 1.7 7 2.3v6.6zm-27.4 0h14V12.6H17v12.5zm-1 0H8a19.2 19.2 0 0 1-6-4.4V13l.3-.4H16v12.5zm109-.8V12.6h4.2c1.3 1.4 2 2.8 2 4.3 0 2.6-2.3 5.1-6.3 7.4zM1 19.2c-.4-.8-.6-1.6-.6-2.3 0-.8.2-1.6.6-2.4v4.7zm127.2-7.6h-3.3V9.4c1.3.7 2.4 1.5 3.3 2.2zm-7.3 0h-12.5v-8A78 78 0 0 1 121 7.5v4.1zm-13.5 0h-14V1c5.1.6 9.8 1.4 14 2.4v8.2zm-15 0h-3.3l.2-11c1 0 2.1.1 3.1.3v10.7zm-55 0H32V2l5.2-.8.2 10.5zm-6.4 0H17V5.2C21 4 25.7 2.9 31 2v9.6zm-15 0H3.3a37 37 0 0 1 12.7-6v6z" id="a"/>
    <path d="M63.5 34.4h-1V29h-14v4.6c-1.4 0-2.7-.2-4-.3V29H32v2.7l-1-.1V29H19a61 61 0 0 1-11-4h8V12.6H2.3l1-1H16v-6l1-.4v6.4h14V2l1-.1v9.7h5.4v1H32v12.5h12.5v-6.6l4 .5v6.1h14v-5.4h1v5.4h14v-6l1-.1v6h14V12.6H89v-1h3.4V1h1v10.7h14V3.4l1 .2v8H121V7.5c1.5.6 2.9 1.2 4 2v2.1h3.3l1 1H125v11.7a55.4 55.4 0 0 1-12.5 4.8h-4v1l-1 .2v-1.2h-14v3.6l-1 .1v-3.7h-14v5h-1v-5h-14v5.3zm45-9.3h12.4V12.6h-12.5v12.5zm-15 0h14V12.6h-14v12.5zm-76.5 0h14V12.6H17v12.5zM2 20.7c-.5-.5-.8-1-1-1.5v-4.7c.2-.5.5-1 1-1.5v7.7z" id="c"/>
  </defs>
  <g fill="none" fill-rule="evenodd">
    <g transform="translate(0 149)">
      <mask id="b" fill="#fff">
        <use xlink:href="#a"/>
      </mask>
      <path d="M65.7 34.4h-2.2V29h14v5c-3.8.2-7.8.3-11.8.3zm-3.2 0c-4.9-.1-9.6-.3-14-.7v-4.6h14v5.2zm16-.4v-4.9h14v3.7c-4.5.6-9.2 1-14 1.2zm-34-.6c-4.4-.4-8.6-1-12.5-1.6v-2.7h12.5v4.3zm49-.7v-3.6h14v1.2c-4.3 1-9 1.8-14 2.4zm-62.5-1A113 113 0 0 1 19 29h12v2.6zm77.4-1.6v-1h4l-4 1zm0-5H121V12.6h-12.5v12.5zm-15 0h14V12.6h-14v12.5zm-1 0h-14V19c6-.7 10-1.7 10.5-2.8V16l.1-.1v-3.2h3.4V25zm-15 0h-14v-5.4c5.2 0 10-.2 14-.6v6zm-15 0h-14v-6c4 .4 8.8.6 14 .6v5.4zm-18 0H32V12.6h5.4v3.6h.1c.5.9 3 1.7 7 2.3v6.6zm-27.4 0h14V12.6H17v12.5zm-1 0H8a19.2 19.2 0 0 1-6-4.4V13l.3-.4H16v12.5zm109-.8V12.6h4.2c1.3 1.4 2 2.8 2 4.3 0 2.6-2.3 5.1-6.3 7.4zM1 19.2c-.4-.8-.6-1.6-.6-2.3 0-.8.2-1.6.6-2.4v4.7zm127.2-7.6h-3.3V9.4c1.3.7 2.4 1.5 3.3 2.2zm-7.3 0h-12.5v-8A78 78 0 0 1 121 7.5v4.1zm-13.5 0h-14V1c5.1.6 9.8 1.4 14 2.4v8.2zm-15 0h-3.3l.2-11c1 0 2.1.1 3.1.3v10.7zm-55 0H32V2l5.2-.8.2 10.5zm-6.4 0H17V5.2C21 4 25.7 2.9 31 2v9.6zm-15 0H3.3a37 37 0 0 1 12.7-6v6z" mask="url(#b)"/>
    </g>
    <g transform="translate(0 149)">
      <mask id="d" fill="#fff">
        <use xlink:href="#c"/>
      </mask>
      <path d="M63.5 34.4h-1V29h-14v4.6c-1.4 0-2.7-.2-4-.3V29H32v2.7l-1-.1V29H19a61 61 0 0 1-11-4h8V12.6H2.3l1-1H16v-6l1-.4v6.4h14V2l1-.1v9.7h5.4v1H32v12.5h12.5v-6.6l4 .5v6.1h14v-5.4h1v5.4h14v-6l1-.1v6h14V12.6H89v-1h3.4V1h1v10.7h14V3.4l1 .2v8H121V7.5c1.5.6 2.9 1.2 4 2v2.1h3.3l1 1H125v11.7a55.4 55.4 0 0 1-12.5 4.8h-4v1l-1 .2v-1.2h-14v3.6l-1 .1v-3.7h-14v5h-1v-5h-14v5.3zm45-9.3h12.4V12.6h-12.5v12.5zm-15 0h14V12.6h-14v12.5zm-76.5 0h14V12.6H17v12.5zM2 20.7c-.5-.5-.8-1-1-1.5v-4.7c.2-.5.5-1 1-1.5v7.7z" mask="url(#d)"/>
    </g>
    <path fill="#C7C6C1" d="M76.8 159.2l-39.9-135-13.8-17 3.4-2.8L41 22l.2.5 40 135.3-4.3 1.3"/>
    <path d="M101.4 40.4H25l11.3 63.3 1.2 61.5c1 2 12.2 3.5 25.7 3.5 13.6 0 24.7-1.5 25.7-3.5v-.2l.1-.1v-.2l1.1-60.9 11.3-63.4" fill="#D4CFC1"/>
    <path d="M32 63l7.3 40.4 1 53.5v.1c0 1.5 10.3 2.7 23 2.7 12.5 0 22.8-1.2 22.8-2.7l1-53.5L94.5 63H32" fill="#CA7030"/>
    <path d="M138.7 32.6a29.9 29.9 0 1 1-59.8 0 29.9 29.9 0 0 1 59.8 0" fill="#EDBF49"/>
    <path d="M108.8 4.5a28 28 0 1 0 0 56.2 28 28 0 0 0 0-56.2m0 59.8a31.7 31.7 0 1 1 0-63.5 31.7 31.7 0 0 1 0 63.5" fill="#E78D39"/>
    <path d="M106.5 9c-5.1.4-9.7 2.6-13.4 5.8l13.4 13.4V9m-3.2 22.4L90 18.1a23.6 23.6 0 0 0-4.9 13.3h18.2M111 9v19.2l13.5-13.4a23.6 23.6 0 0 0-13.4-5.9m3.2 27.1l12.3 12.3c3-3.4 5-7.6 5.7-12.3h-18m0-4.6h18.2c-.2-5-2-9.6-4.9-13.3l-13.3 13.3m-3.3 7.8v17c4.6-.4 8.8-2.2 12.3-4.8L111 39.2m-5.6-1.2L93.1 50.4c3.4 3 7.6 5 12.3 5.7V38m-3.2-3.2h-17c.4 4.6 2.1 8.8 4.8 12.3l12.2-12.3" fill="#E78D39"/>
    <path d="M56.8 144.6a3.4 3.4 0 1 1 0-6.8 3.4 3.4 0 0 1 0 6.8m18.3-15.3a2.9 2.9 0 1 1 0-5.8 2.9 2.9 0 0 1 0 5.8M54 115a3.4 3.4 0 1 1 0-6.8 3.4 3.4 0 0 1 0 6.8m23.8-27.4l2-1.6c-.3.9-1.1 1.5-2 1.6" fill="#D38853"/>
    <path d="M63.4 98.4l-9.2-31.3a222.8 222.8 0 0 0 32.5-1.3l-3 17.4-3.8 2.8a2.9 2.9 0 1 0-2.1 1.6L63.4 98.4" fill="#D0824B"/>
    <path d="M36.6 118.7l-.3-15-11-62.4c1 1.3 7.8 2.3 17.5 3l4.5 15.1c-3.8.3-7 .8-9.6 1.2l-2.8-15.4h-5.8l3 17.5v.7l7.2 40 .2 13-3 2.3" fill="#DBD6C9"/>
    <path d="M39.5 116.5l-.2-13L32 63.3l.3.3 7.4 41.7.2 10.7-.5.4m6.3-4.8l-.2-6.3L41 79.2a3.4 3.4 0 1 0-.9-4.9l-1.5-8.7c2.9.6 6.6 1 10.9 1.3l10.2 34.4-14 10.4M32.2 63" fill="#D0824B"/>
    <path d="M95.4 74.4L96 70l-.7 4.3m.9-5.3l1.2-6.9-1.2 7" fill="#FFFFFE"/>
    <path fill="#F8F7F5" d="M96.1 70.1l.2-1-.2 1"/>
    <path d="M91.9 77l2.4-13.6a.6.6 0 0 0 0-.4c0-.4-.4-.8-1.1-1.1l.2-1.6c1.3.7 2.7 1.4 4.1 1.9l-2.1 12.2-3.5 2.6m-4.2-16.6a216.2 216.2 0 0 0-35.8-1.3l-4.4-14.6a340.2 340.2 0 0 0 32 0c1.9 4.8 5 9 8.8 12.3l-.6 3.6" fill="#DBD6C9"/>
    <path d="M90.3 78.2l2.4-13.8c.9-.3 1.4-.7 1.6-1L92 77l-1.6 1.2m4-15.2" fill="#D0824B"/>
    <path d="M98.2 58.5a28 28 0 0 1-4-2l.7-4.7c1.3 1 2.6 1.7 4 2.4l-.7 4.3m-9.1-6a28.2 28.2 0 0 1-5.8-8.2l4.7-.4a24 24 0 0 0 2 3.1l-1 5.5m6.7-4.7l.1-.9h-5.7l3.6-3.6c4.2-.6 6.9-1.2 7.5-2l-.2 1.1-5.3 5.4" fill="#F1C962"/>
    <path d="M97.5 62.2c-1.4-.5-2.8-1.2-4-1.9l.6-3.8a28 28 0 0 0 4 2l-.6 3.7m-9.2-5.4c-3.8-3.3-7-7.5-8.9-12.3l4-.2c1.3 3 3.3 5.9 5.7 8.2l-.8 4.3M99 54.2c-1.5-.7-2.8-1.5-4-2.4l.7-4 5.3-5.4-2 11.8M90 47c-.8-1-1.4-2-2-3l5.7-.7-3.6 3.6v.1H90" fill="#EA9D52"/>
    <path d="M25.1 40.7v-.3h.3a1 1 0 0 0-.3.3" fill="#DBD6C9"/>
    <path d="M101.3 40.7a1 1 0 0 0-.3-.3h.4v.3" fill="#F1C962"/>
    <path d="M77.3 87.7a2.9 2.9 0 1 1 2.6-1.7l-2.1 1.6h-.5m-34.5-7.9c-.7 0-1.3-.2-1.8-.5l-.9-5a3.4 3.4 0 1 1 2.7 5.5" fill="#DA9A6A"/>
    <path d="M101.4 41c0 2.1-17.1 3.9-38.2 3.9-21 0-38.1-1.8-38.1-4 0-2.1 17-4 38.1-4s38.2 1.9 38.2 4" fill="#E3E1CD"/>
    <path d="M94.4 63c0 2.4-14 4.3-31.2 4.3s-31.1-2-31.1-4.2c0-2.4 14-4.3 31.1-4.3 17.2 0 31.2 2 31.2 4.3" fill="#E78D39"/>
    <path d="M76.8 159.2l-17.1-58 3.7-2.8 15.3 51.7-.1 8.6-1.8.5" fill="#C8A485"/>
    <path d="M59.7 101.3L49.5 66.8c1.5.2 3 .2 4.7.3l9.2 31.3-3.7 2.9" fill="#CAAC8F"/>
    <path d="M47.3 59.4l-4.5-15.1 4.7.2 4.3 14.6-4.5.3" fill="#CFCDC5"/>
    <path d="M40.9 37.7l-.2-.7.2.7" fill="#DEDED9"/>
    <path d="M41 37.7l-.3-.7 4.2-1.2.5 1.7-4.5.2" fill="#C7C6C1"/>
    <path d="M47.5 44.5l-4.7-.2-2-6.6h.1l4.5-.2 2.1 7" fill="#D2D1C6"/>
    <path d="M54.2 67.1c-1.7 0-3.2-.1-4.7-.3l-2.2-7.4 4.5-.3 2.4 8" fill="#D2B086"/>
    <path d="M75.8 166v-1c1.4-.4 2.4-.9 2.6-1.4v-.4l.1-4.2a38 38 0 0 0 5.8-1v5.6h-.1c-.5 1-3.7 1.9-8.4 2.5" fill="#D8D3C5"/>
    <path d="M78.5 159v-.3l2.5-.8-2.3-7.8.8-43.9 4.1-23 6.7-5-5 28-1 51.9a38 38 0 0 1-5.8 1" fill="#CD793C"/>
    <path d="M83.6 83.2l3.1-17.4c2.6-.4 4.7-.8 6-1.4l-2.4 13.8-6.7 5" fill="#D38955"/>
    <path d="M93.2 61.9c-1.2-.5-3-1-5.5-1.5l.6-3.6c1.6 1.3 3.3 2.5 5.1 3.5l-.2 1.6" fill="#DDDACC"/>
    <path d="M94.1 56.5a28.2 28.2 0 0 1-5-4l1-5.5v-.1h5.7l-.1.9-2.6 2.6 1.8 1.4-.8 4.7" fill="#F2CD6B"/>
    <path d="M93.4 60.3c-1.8-1-3.5-2.2-5-3.5l.7-4.3c1.5 1.5 3.2 2.9 5 4l-.7 3.8m1.6-8.5l-2-1.4 2.7-2.6-.8 4M90 47v-.1h.1v.1" fill="#EBA35C"/>
    <path d="M86.7 65.8l1-5.4c2.4.5 4.3 1 5.5 1.5l-.5 2.5c-1.3.6-3.4 1-6 1.4" fill="#E89546"/>
    <path fill="#CBAA8C" d="M78.6 158.7l.1-8.6L81 158l-2.4.8"/>
    <path d="M49.8 166.5c-5-.6-8.3-1.5-8.8-2.6h-.1l-.1-6.4c.8.5 2.9 1 5.9 1.4v5h.1c.3.6 1.3 1 3 1.5v1" fill="#DDDACC"/>
    <path d="M46.7 158.9c-3-.4-5-.9-6-1.4l-.7-41.4 5.8-4.4.9 47.2" fill="#D38853"/>
    <path d="M32.2 62.7L29 45.2h5.8l2.8 15.4c-3 .6-5 1.3-5.5 2" fill="#E3DED2"/>
    <path d="M40 116.1l-.2-10.7-7.4-41.7c.7.7 3 1.4 6.2 2l1.5 8.6a3.4 3.4 0 0 0 .9 4.9l4.6 26.2.2 6.3-5.8 4.4" fill="#DA9A6B"/>
    <path d="M41 79.2a3.4 3.4 0 0 1-.9-5l.9 5" fill="#E2AF85"/>
    <path d="M38.6 65.6c-3.3-.5-5.5-1.2-6.2-2l-.2-1c.5-.7 2.5-1.4 5.5-2l.9 5" fill="#EBA25A"/>
  </g>
</svg>
