<svg width="139" height="203" xmlns="http://www.w3.org/2000/svg" xmlns:xlink="http://www.w3.org/1999/xlink">
  <defs>
    <path d="M65.5 34.2c-3.3 0-6.4 0-9.5-.2V23.1h14v11h-4.5zm5.5 0v-11h14v10.2c-4.5.4-9.2.6-14 .7zM55 34l-14-1V23h14v11zm34-1v-9.9h12.5v8.2c-4 .7-8.1 1.3-12.5 1.7zm-49-.2c-5-.6-9.7-1.3-14-2.2v-7.5h14v9.7zm62.5-1.7v-8h14v4.5c-4 1.4-8.7 2.5-14 3.5zM25 30.4a85.2 85.2 0 0 1-14-4V23h14v7.3zm92.5-3.1V23h8.8a39 39 0 0 1-8.8 4.2zM7 24.5l-2.3-1.4H7v1.4zm120.6-2.4h-10.1v-14h5c5.3 2.5 8.3 5.5 8.3 8.6 0 1.9-1 3.7-3.2 5.4zm-25.1 0h14v-14h-14v14zm-1 0H89v-7.4c3.7-.8 5.9-2 5.9-3.1v-.3l-.5-3.2h7v14zm-16.5 0H71v-5.4c5.3-.1 10-.6 14-1.2v6.6zm-15 0H56v-5.5a160.6 160.6 0 0 0 14 .2V22zm-15 0H41v-7.5c3.4.9 8.3 1.6 14 2V22zm-15 0H26v-14h10l-.5 3.2v.3c0 1 1.6 2 4.4 2.8V22zm-29 0h14v-14H11v14zm-4 0H3.3c-2-1.7-3.2-3.5-3.2-5.4 0-2.8 2.5-5.5 6.9-7.8V22zm104-18h-8.5V2.2c3 .6 5.9 1.2 8.5 2zm-9.5 0h-7.8L93.2.8l8.3 1.3v2zm-64.7 0H26V2.7C29.5 2 33.3 1.4 37.4 1l-.6 3zM25 4.1h-5L25 3v1.2z" id="a"/>
    <path d="M67 32.1v-11H53V32h-1V21H38v10l-1-.1v-9.7H23v7.5l-1-.2v-7.3H8v3.2c-1.5-.5-2.8-1.2-4-1.8v-1.4H1.7l-1.4-1H4V7c3.3-2 7.7-3.5 13-5h5V1l1-.2v1.4h10.8l-.7 4H23v14h14v-7.7l1 .2v7.5h14v-5.6h1v5.6h14v-5.3h1V20h14v-6.6l4-.8V20h12.5V6h-7.1l-.7-4h7.8V0l1 .1v2h8.5c4.5 1 8.4 2.4 11.5 4h-5v14h10.1l-1.3 1h-8.8v4l-1 .4V21h-14v8l-1 .2V21H86v10l-4 .3V21H68v11h-1zm32.5-12h14v-14h-14v14zM8 20.1h14v-14H8v14z" id="c"/>
  </defs>
  <g fill="none" fill-rule="evenodd">
    <g transform="translate(0 168)">
      <mask id="b" fill="#fff">
        <use xlink:href="#a"/>
      </mask>
      <path d="M65.5 34.2c-3.3 0-6.4 0-9.5-.2V23.1h14v11h-4.5zm5.5 0v-11h14v10.2c-4.5.4-9.2.6-14 .7zM55 34l-14-1V23h14v11zm34-1v-9.9h12.5v8.2c-4 .7-8.1 1.3-12.5 1.7zm-49-.2c-5-.6-9.7-1.3-14-2.2v-7.5h14v9.7zm62.5-1.7v-8h14v4.5c-4 1.4-8.7 2.5-14 3.5zM25 30.4a85.2 85.2 0 0 1-14-4V23h14v7.3zm92.5-3.1V23h8.8a39 39 0 0 1-8.8 4.2zM7 24.5l-2.3-1.4H7v1.4zm120.6-2.4h-10.1v-14h5c5.3 2.5 8.3 5.5 8.3 8.6 0 1.9-1 3.7-3.2 5.4zm-25.1 0h14v-14h-14v14zm-1 0H89v-7.4c3.7-.8 5.9-2 5.9-3.1v-.3l-.5-3.2h7v14zm-16.5 0H71v-5.4c5.3-.1 10-.6 14-1.2v6.6zm-15 0H56v-5.5a160.6 160.6 0 0 0 14 .2V22zm-15 0H41v-7.5c3.4.9 8.3 1.6 14 2V22zm-15 0H26v-14h10l-.5 3.2v.3c0 1 1.6 2 4.4 2.8V22zm-29 0h14v-14H11v14zm-4 0H3.3c-2-1.7-3.2-3.5-3.2-5.4 0-2.8 2.5-5.5 6.9-7.8V22zm104-18h-8.5V2.2c3 .6 5.9 1.2 8.5 2zm-9.5 0h-7.8L93.2.8l8.3 1.3v2zm-64.7 0H26V2.7C29.5 2 33.3 1.4 37.4 1l-.6 3zM25 4.1h-5L25 3v1.2z" mask="url(#b)"/>
    </g>
    <g transform="translate(3 170)">
      <mask id="d" fill="#fff">
        <use xlink:href="#c"/>
      </mask>
      <path d="M67 32.1v-11H53V32h-1V21H38v10l-1-.1v-9.7H23v7.5l-1-.2v-7.3H8v3.2c-1.5-.5-2.8-1.2-4-1.8v-1.4H1.7l-1.4-1H4V7c3.3-2 7.7-3.5 13-5h5V1l1-.2v1.4h10.8l-.7 4H23v14h14v-7.7l1 .2v7.5h14v-5.6h1v5.6h14v-5.3h1V20h14v-6.6l4-.8V20h12.5V6h-7.1l-.7-4h7.8V0l1 .1v2h8.5c4.5 1 8.4 2.4 11.5 4h-5v14h10.1l-1.3 1h-8.8v4l-1 .4V21h-14v8l-1 .2V21H86v10l-4 .3V21H68v11h-1zm32.5-12h14v-14h-14v14zM8 20.1h14v-14H8v14z" mask="url(#d)"/>
    </g>
    <path d="M94.9 179.6v-.3l-7.3-46.9c26-39.8 14.3-98.8 14.3-98.8H28.7c-8.2 68.8 15 97.2 15 97.2l-8 48.5-.1.3c0 2.9 13.2 5.2 29.6 5.2 16.4 0 29.7-2.3 29.7-5.2" fill="#D4CFC1"/>
    <path d="M82.5 129.1c11-16.8 14.8-37.6 15.7-55.3H33.5c2.3 36.7 14.8 53 15 53.2l1.7 2.1-5.6 33.3c0 2.3 9.2 4.1 20.6 4.1 11.3 0 20.5-1.8 20.5-4h.4L81.2 131l1.3-2" fill="#246369"/>
    <path d="M57.3 147.4c-.4 0-.7-.1-1-.3l1.5-4.6a2.4 2.4 0 0 1-.5 4.9M72 101.9l.5-1.3.6-.5c0 .7-.5 1.4-1 1.8m-1 23.9a2.4 2.4 0 1 1 0-4.9 2.4 2.4 0 0 1 0 5" fill="#3A767B"/>
    <path d="M98.2 73.8c0 2.8-14.5 5-32.4 5s-32.3-2.2-32.3-5 14.4-5 32.3-5 32.4 2.2 32.4 5" fill="#2D848D"/>
    <path d="M51 182.9c-6.6-1-10.8-2.4-10.8-4v-.2l8-47.1s-2.3-2.8-5.2-8.8l2-1.5c2 3.8 3.4 5.6 3.4 5.7l1.8 2.1-5.6 33.3c0 1 1.8 2 4.7 2.6L47 178.7v.2c0 1 1.4 1.9 4 2.6v1.4" fill="#DDDACC"/>
    <path d="M49.3 165c-3-.7-4.7-1.6-4.7-2.6l5.6-33.3-1.8-2.1s-1.4-2-3.4-5.7l3-2.3c3.7 8.6 7 12.6 7 12.6l-2 11.2-2.8 8 1.4.6-2.3 13.6" fill="#498185"/>
    <path d="M76.8 182.9v-1.4c2.5-.7 4-1.6 4-2.6v-.2l-2.3-13.2c3-.5 5.2-1.2 6.4-2l2.5 15.2v.2c0 1.6-4 3-10.6 4" fill="#D8D3C5"/>
    <path d="M78.5 165.5l-5.7-33.9s10.6-13 14.8-42.4l7.4-5.6c-3.5 33.5-15.5 48-15.5 48l5.4 32a23 23 0 0 1-6.4 2" fill="#306E74"/>
    <path d="M102 34.1c0 4-16.4 7.4-36.6 7.4-20.3 0-36.7-3.3-36.7-7.4 0-4 16.4-7.3 36.7-7.3C85.6 26.8 102 30 102 34" fill="#E3E1CD"/>
    <path d="M102 34.1c0 4-16.4 7.4-36.6 7.4-20.3 0-36.7-3.3-36.7-7.4 0-4 16.4-7.3 36.7-7.3C85.6 26.8 102 30 102 34" fill="#E3E1CD"/>
    <path fill="#C7C6C1" d="M54.4 152.3l-4.2-1.4L102.6.7l36 8-1 4.3-32.1-7-51 146.4"/>
    <path d="M28.7 34v-.1m0 0v-.3.2" fill="#FFFFFE"/>
    <path d="M40 125c-6-11.4-17.3-40-11.3-90.9v-.5.5c0 1.3 1.7 2.5 4.7 3.6C28 83 36.8 110 43 122.7l-3 2.3m-1.4-54A219 219 0 0 1 40 39.5c6.6 1.3 15.5 2 25.4 2h5.4a131 131 0 0 0 17-1.5l.3 2.5L78.7 69c-4-.2-8.3-.4-12.9-.4-11.4 0-21.5 1-27.2 2.4" fill="#DBD6C9"/>
    <path d="M48 119c-3.8-9-8-22.8-9.2-42.4 5.8 1.4 15.8 2.3 27 2.3l9.6-.2-9.3 26.7-18 13.6m-4.6-37.5a2.4 2.4 0 1 0 0 4.9 2.4 2.4 0 0 0 0-4.9" fill="#3F7A7E"/>
    <path d="M43.5 86.4a2.4 2.4 0 1 1 0-4.9 2.4 2.4 0 0 1 0 4.9" fill="#54898D"/>
    <path d="M65.8 78.9a137 137 0 0 1-27-2.3 182 182 0 0 1-.2-5.5c5.7-1.4 15.8-2.4 27.2-2.4 4.6 0 9 .2 13 .4l-3.4 9.6-9.6.2" fill="#49959C"/>
    <path d="M43 122.8c-6.2-12.8-15-40-9.6-85 1.8.5 4 1.1 6.6 1.6a219 219 0 0 0-1.4 31.7c-3.3.7-5.1 1.7-5.1 2.7v.1C35 98.3 41 113.7 45 121.3l-2 1.5" fill="#E3E0D2"/>
    <path d="M45 121.3a120 120 0 0 1-11.5-47.4c.1 1 2 2 5.3 2.7 1.3 19.6 5.4 33.5 9.2 42.4l-3 2.3" fill="#619395"/>
    <path d="M38.8 76.6c-3.2-.8-5.2-1.7-5.3-2.7v-.1c0-1 1.8-2 5-2.7l.3 5.5" fill="#6BA9AE"/>
    <path d="M88 42.4l-.2-2.5 1.2-.2-1 2.7" fill="#DDDACC"/>
    <path d="M65.6 41.5h.1m.2 0h.1m0 0h.1m.1 0h.1m0 0h.1m.2 0h.1m0 0h.1m.2 0h.1m.1 0h.1m0 0h.1m0 0h.1m.8 0h.1m.3-.1h.1m0 0h.1m.2 0h.1m.1 0h.1m1-.1h.4-.4M28.8 34v-.5.5" fill="#E8E5D3"/>
    <path d="M102 34.7v-.3.3" fill="#F8F7F5"/>
    <path d="M97.6 81.6a162.1 162.1 0 0 0 .6-7.8c0-.7-.9-1.3-2.4-1.9.4-9.8 0-20.8-1.4-33.3 4.5-1.2 7.3-2.6 7.6-4.2v.3c.8 4.2 3.5 21.4 2.1 42l-6.5 5m-8.4-11.4l-6-.8L89 53.4c.3 6 .4 11.6.3 16.9" fill="#DBD6C9"/>
    <path d="M73.1 100a2.3 2.3 0 0 0 0-1l7.1-20.6 7.2-.8a2.4 2.4 0 0 0 1 4.7l-.8 6.9L73 100m22-16.5l.5-7.8c1.6-.6 2.5-1.3 2.6-2l-.6 7.8-2.6 2m-6.2-6l-.5-.1.5-.1v.1" fill="#3F7A7E"/>
    <path d="M72.5 100.6L73 99a2.4 2.4 0 0 1 .1 1l-.6.6m15.7-18.3a2.4 2.4 0 0 1-.8-4.7 72.4 72.4 0 0 0 1.4 0 169.4 169.4 0 0 1-.6 4.7" fill="#54898D"/>
    <path d="M80.2 78.4l3-8.9 6 .8-.4 7a64.6 64.6 0 0 1-8.6 1m15.4-2.5l.2-3.9c1.5.6 2.4 1.2 2.4 1.9-.1.7-1 1.4-2.6 2" fill="#49959C"/>
    <path d="M87.6 89.2l.8-6.9a2.4 2.4 0 0 0 .4-4.8v-.1c2.9-.5 5.2-1 6.8-1.6a95 95 0 0 1-.6 7.8l-7.4 5.6" fill="#4B8287"/>
    <path d="M88.4 82.3l.4-4.8a2.4 2.4 0 0 1-.4 4.8" fill="#5E9194"/>
    <path d="M95.8 72a35 35 0 0 0-6.6-1.7c.1-5.3 0-11-.3-17L94 38.8h.4A219 219 0 0 1 95.8 72" fill="#DDDACC"/>
    <path d="M88.8 77.4l.4-7.1c2.8.4 5 1 6.6 1.6 0 1.3 0 2.6-.2 3.9-1.6.6-3.9 1.1-6.8 1.6" fill="#549CA2"/>
    <path d="M94 38.7c4.7-1.2 7.7-2.7 8-4.3-.3 1.6-3.1 3-7.6 4.2l-.4.1" fill="#E8E5D3"/>
    <path d="M66.1 105.4L89 39.7l5-1-21.5 61.9-6.4 4.8" fill="#D0CFCA"/>
  </g>
</svg>
